<?xml version="1.0" standalone="no"?>
<!DOCTYPE svg PUBLIC "-//W3C//DTD SVG 1.1//EN" "http://www.w3.org/Graphics/SVG/1.1/DTD/svg11.dtd" >
<svg xmlns="http://www.w3.org/2000/svg">
<metadata></metadata>
<defs>
<font id="akzidenz-grotesk_bq_extendeMd" horiz-adv-x="1536" >
<font-face units-per-em="2048" ascent="1638" descent="-410" />
<missing-glyph horiz-adv-x="768" />
<glyph horiz-adv-x="0" />
<glyph horiz-adv-x="682" />
<glyph unicode=" "  horiz-adv-x="768" />
<glyph unicode="&#x09;" horiz-adv-x="768" />
<glyph unicode="&#xa0;" horiz-adv-x="768" />
<glyph unicode="!" horiz-adv-x="681" d="M219 0v256h334v-256h-334zM219 893v553h334v-553l-53 -467h-232z" />
<glyph unicode="&#x22;" horiz-adv-x="722" d="M33 1520h268l-90 -592h-82zM422 1520h268l-90 -592h-84z" />
<glyph unicode="#" horiz-adv-x="1472" d="M53 432v205h334l19 197h-326v206h342l37 406h211l-37 -406h274l35 406h209l-37 -406h305v-206h-321l-17 -197h314v-205h-334l-39 -432h-211l43 432h-276l-43 -432h-205l39 432h-316zM596 637h274l17 197h-273z" />
<glyph unicode="$" horiz-adv-x="1662" d="M41 365l334 84q1 -1 8 -14.5t17 -30.5t20 -29q98 -121 340 -150v377q-204 31 -298 62q-223 74 -286 237q-24 60 -24 143q0 203 170 322q90 64 192.5 89t245.5 36v207h168v-209q316 -15 522 -178q67 -56 125 -127l-332 -127q-16 20 -24 28q-92 110 -282 135q-3 0 -5 0.5 t-4 0.5v-340q212 -36 304.5 -59t164.5 -66q182 -107 182 -326t-207 -356q-91 -57 -195 -80.5t-249 -36.5v-256h-168v256q-175 7 -301 45q-75 24 -140.5 63t-106 74t-79.5 85.5t-54.5 75.5t-37.5 65zM502 1065q0 -51 37 -84q50 -44 221 -72v320q-105 -8 -152 -27 q-110 -44 -106 -137zM928 223q293 31 293 191q0 67 -60 104q-48 28 -233 57v-352z" />
<glyph unicode="%" horiz-adv-x="2304" d="M53 870q0 121 31 205q13 35 30.5 67.5t51 70.5t75 65.5t106 46t140.5 18.5q294 0 412 -180q72 -111 72 -291q0 -196 -97 -317q-59 -73 -158.5 -112.5t-203.5 -39.5q-95 0 -189.5 34t-154.5 98q-25 28 -45 61q-70 112 -70 274zM299 872q0 -136 57 -210q21 -29 68 -52 q47 -20 88 -20q113 0 164 94q22 44 31 100q10 60 10 111q0 119 -41 182q-23 31 -41 45q-49 35 -139 35q-44 0 -78.5 -15.5t-53 -35.5t-32 -50.5t-17.5 -47.5t-8 -39q-8 -39 -8 -97zM657 39l838 1335l145 -92l-839 -1335zM1327 446q0 121 31 205q13 35 30.5 67.5t51 71t75 66 t106 46t140.5 18.5q293 0 412 -181q72 -111 72 -290q0 -197 -97 -318q-59 -73 -158.5 -112t-203.5 -39q-96 0 -190 33.5t-154 97.5q-25 28 -45 61q-70 112 -70 274zM1573 449q0 -137 57 -211q21 -29 68 -52q47 -20 88 -20q113 0 164 94q20 41 30 100q11 66 11 111 q0 119 -41 182q-23 31 -41 45q-49 35 -140 35q-157 0 -188 -188q-8 -39 -8 -96z" />
<glyph unicode="&#x26;" horiz-adv-x="1622" d="M96 381q0 151 117 248q45 38 104 62.5t179 58.5q-39 41 -56 61t-43.5 57t-37.5 73.5t-11 78.5q0 70 41 137q47 77 151.5 128.5t266.5 51.5q27 0 57.5 -2.5t93 -12.5t122.5 -37.5t102 -70.5q75 -75 75 -190q0 -127 -90 -213q-64 -60 -223 -135l227 -240q32 38 70 101 l326 -25q-49 -117 -111 -190q-35 -43 -88 -86l227 -236h-409l-68 76q-143 -57 -234 -78t-225 -21q-239 0 -393 97q-170 110 -170 307zM412 377q0 -42 22 -76q27 -42 85.5 -71t146.5 -29q116 0 274 67l-281 301q-108 -37 -149 -57q-98 -47 -98 -135zM676 1018q0 -28 21 -64.5 t38 -56t45 -49.5q72 28 106.5 48.5t53.5 49.5q21 33 21 60q0 43 -38 75.5t-112 32.5q-67 0 -101 -29t-34 -67z" />
<glyph unicode="'" horiz-adv-x="335" d="M33 1520h268l-90 -592h-82z" />
<glyph unicode="(" horiz-adv-x="768" d="M104 610q0 290 136 518.5t387 423.5l92 -92q-318 -401 -318 -872q0 -495 318 -813l-92 -103q-244 170 -383.5 411.5t-139.5 526.5z" />
<glyph unicode=")" horiz-adv-x="768" d="M45 -233q317 397 317 870q0 501 -317 815l92 100q244 -168 383 -409t139 -527q0 -149 -37 -284t-108 -251.5t-163.5 -215t-213.5 -193.5z" />
<glyph unicode="*" horiz-adv-x="774" d="M41 1126l51 170l201 -57v211h178v-213l205 70l57 -166l-201 -70l123 -162l-139 -108l-131 170l-119 -170l-143 104l115 164z" />
<glyph unicode="+" horiz-adv-x="1581" d="M182 481v267h449v423h325v-423h443v-267h-443v-426h-325v426h-449z" />
<glyph unicode="," horiz-adv-x="598" d="M129 0v293h340v-287q0 -180 -78.5 -248.5t-261.5 -68.5v98q105 10 137.5 56.5t32.5 156.5h-170z" />
<glyph unicode="-" horiz-adv-x="804" d="M68 492v266h669v-266h-669z" />
<glyph unicode="." horiz-adv-x="598" d="M131 0v293h336v-293h-336z" />
<glyph unicode="/" horiz-adv-x="1024" d="M43 0l647 1446h291l-643 -1446h-295z" />
<glyph unicode="0" d="M66 672q0 336 192 520q42 42 115 84q153 88 352 88q41 1 89 -3t126.5 -19t159 -56t143.5 -104q91 -93 134.5 -227.5t43.5 -280.5q0 -34 -3 -72t-13 -105.5t-37 -139.5t-68 -130q-59 -79 -139 -135q-170 -117 -416 -117q-206 0 -366 88q-313 173 -313 609zM414 666 q0 -65 9.5 -124.5t33 -116t59.5 -98t92.5 -66.5t128.5 -25q181 0 260 147q31 56 45 133q17 81 17 180q0 148 -38.5 233t-109.5 130q-77 50 -180 45q-70 0 -131 -29q-130 -60 -170 -237q-16 -82 -16 -172z" />
<glyph unicode="1" d="M250 889v241q236 34 368 160q7 7 20.5 22.5t20.5 22.5h308v-1335h-340v999q-31 -17 -58 -28q-71 -36 -142.5 -52.5t-176.5 -29.5z" />
<glyph unicode="2" d="M106 0v16v19.5t0.5 21.5t1 25t2 26.5t3.5 29.5l5 30t7 33t9.5 33.5t12.5 35.5q71 189 269 301q22 13 47.5 25t44 20.5t58.5 24.5t59 23t79 30t87 33q74 27 112 43q133 55 133 172q0 52 -24 86q-55 82 -256 82q-143 0 -213 -72q-29 -29 -41 -63q-15 -35 -15 -76h-342 q7 66 17 109q25 113 76.5 175t117.5 99q148 80 408 80q118 0 207 -14q21 -3 40 -6.5t62.5 -14t81.5 -28.5t80.5 -43.5t78 -66t56.5 -89.5q31 -71 31 -152q0 -50 -17 -110q-36 -136 -159 -220q-22 -15 -45 -28.5t-57 -28.5t-54.5 -24t-71 -28t-72 -26.5t-92 -32t-98.5 -34.5 q-143 -49 -194 -90q-30 -26 -54 -64h883v-262h-1264z" />
<glyph unicode="3" d="M70 430l356 19q0 -33 18 -82q27 -70 99.5 -105t206.5 -35q70 0 150.5 17.5t123.5 50.5q61 47 61 123q0 82 -67 121q-49 29 -175.5 33.5t-277.5 -3.5v224q236 -2 299 4q64 7 101 24q84 37 84 133q0 77 -70.5 118.5t-206.5 41.5q-191 0 -258 -72q-31 -33 -47 -96l-354 15 q9 43 14 61q28 96 92 166q49 54 114.5 90.5t142 53.5t143.5 23.5t149 6.5q340 0 502 -105q141 -92 141 -256q0 -188 -172 -266q-50 -25 -158 -43q111 -10 166 -28q89 -30 142 -99.5t53 -163.5q0 -162 -146 -280q-188 -152 -544 -152q-203 0 -350.5 57t-217.5 134 q-16 18 -30.5 39t-24.5 39.5t-18.5 40.5t-14 37.5t-10.5 36.5t-7 31t-5.5 27t-3.5 19z" />
<glyph unicode="4" d="M90 274v238l758 819h354v-819h221v-238h-221v-274h-334v274h-778zM414 512h454l2 365q0 46 13 165q-76 -94 -99 -120z" />
<glyph unicode="5" d="M90 371l346 35q14 -43 33 -70q42 -55 123.5 -83t161.5 -28q70 0 126.5 16.5t92 42.5t59.5 60.5t33.5 69t9.5 69.5q0 112 -90 181q-87 65 -235 65q-158 0 -232 -82q-18 -18 -39 -59h-313l65 741h1141l-18 -239h-826l-30 -269q36 31 55 43q122 82 330 82q99 0 183.5 -21.5 t141.5 -58t94.5 -74.5t61.5 -79q53 -95 53 -221q0 -143 -71 -259q-87 -138 -246 -199t-346 -61q-185 0 -318 45q-196 64 -291 222q-25 41 -55 131z" />
<glyph unicode="6" d="M92 641q0 428 307 619q188 112 414 112q74 0 131 -8q41 -5 81 -14t107 -32.5t130.5 -72t109.5 -115.5q32 -48 58 -122l-349 -33q-19 33 -53 65q-86 84 -240 84q-120 0 -208 -57.5t-127 -169.5q-7 -19 -12.5 -40.5t-8 -41.5t-4.5 -34.5t-3 -30t-1 -17.5q56 50 68 58 q148 106 376 106q101 0 186.5 -19t145 -52t99.5 -68.5t69 -77.5q68 -101 68 -225q-1 -92 -39.5 -177t-104.5 -147q-72 -69 -196.5 -115.5t-302.5 -46.5q-275 0 -451 115q-131 88 -190.5 234t-59.5 323zM453 446q0 -62 39 -114q45 -61 116.5 -83t165.5 -22q184 0 264 84 q54 60 54 133q0 22 -11 62q-12 40 -41 69.5t-63.5 44.5t-73 25.5t-71 11.5t-57 3t-30.5 -1h-2q-50 -2 -112 -18q-178 -57 -178 -195z" />
<glyph unicode="7" d="M152 1079v248h1230v-217q-167 -81 -290 -221q-44 -49 -90.5 -111.5t-108.5 -182.5t-96 -243q-35 -128 -47 -352h-363q22 174 49 281q98 384 363 653q53 55 170 145h-817z" />
<glyph unicode="8" d="M100 377q0 160 131 250q79 50 226 67q-68 10 -117 31q-85 35 -136 108.5t-52 165.5q0 105 63 189q65 84 200.5 135t340.5 51q169 0 282 -28q19 -5 35.5 -9.5t54 -19t67.5 -31t67 -45.5t62 -62.5t41.5 -82t16.5 -103.5q0 -93 -51 -162q-73 -105 -252 -137q45 -5 60 -8 q167 -25 247 -149q48 -86 48 -164q0 -50 -16 -97t-37 -77.5t-50.5 -59t-47.5 -41t-38 -24.5q-75 -43 -198 -74t-285 -31q-317 0 -490.5 114t-171.5 294zM461 406q0 -54 31 -97q73 -94 262 -94q163 0 241 49q45 30 62.5 70t17.5 72q0 48 -26 86q-69 101 -285 98 q-146 0 -221 -43q-85 -52 -82 -141zM492 961q0 -42 22 -78q56 -90 266 -90q171 0 230 77q28 37 28 86q0 83 -70 129t-210 43q-127 0 -197 -43q-69 -44 -69 -124z" />
<glyph unicode="9" d="M84 346l336 27q8 -19 31 -49q83 -95 260 -95q203 0 301 129q28 37 45 85t23 81.5t14 96.5q-40 -37 -72 -60q-157 -104 -406 -104q-157 0 -268 45q-30 12 -59.5 28.5t-67 49t-65 72.5t-47 101.5t-19.5 133.5q0 96 35 180q48 112 152 184.5t233 102.5q108 24 240 24 q231 0 383 -82q65 -35 118 -88q65 -65 109 -172q57 -141 57 -317q0 -90 -10 -162q-39 -273 -201 -418q-189 -166 -534 -166q-266 0 -430 125q-65 51 -103 109q-35 53 -55 139zM422 911q0 -42 16 -82q50 -127 279 -127q186 0 276 64q78 53 78 147q0 87 -53 140 q-85 85 -299 77q-205 -8 -270 -118q-27 -49 -27 -101z" />
<glyph unicode=":" horiz-adv-x="681" d="M217 0v291h336v-291h-336zM217 588v293h336v-293h-336z" />
<glyph unicode=";" horiz-adv-x="681" d="M213 0v293h340v-291q0 -60 -7 -103t-26 -83.5t-56.5 -68.5t-94.5 -44q-42 -12 -156 -16v100q104 10 138 57t34 156h-172zM217 592v289h336v-289h-336z" />
<glyph unicode="&#x3c;" horiz-adv-x="1581" d="M213 481v297l1110 451v-303l-741 -285l741 -291v-315z" />
<glyph unicode="=" horiz-adv-x="1581" d="M193 236v266h1196v-266h-1196zM193 729v266h1196v-266h-1196z" />
<glyph unicode="&#x3e;" horiz-adv-x="1581" d="M258 336l741 285l-739 290v316l1108 -447v-297l-1108 -450z" />
<glyph unicode="?" horiz-adv-x="1409" d="M127 1008q7 58 23 127q38 162 159 243q155 103 436 103q269 0 422 -97q44 -26 84 -69q99 -104 99 -246q0 -56 -17 -108q-25 -76 -93.5 -142t-205.5 -143q-6 -4 -24 -13.5t-26 -14.5t-21 -14.5t-23 -19.5q-23 -25 -32 -51t-9 -80v-57h-338v106q0 62 7.5 94t27.5 58 q14 19 35.5 37.5t40 31t69.5 46.5q155 100 185 127q78 65 78 143q0 52 -29 90q-64 86 -252 86q-81 0 -133 -18q-125 -50 -133 -236zM561 0v256h338v-256h-338z" />
<glyph unicode="@" horiz-adv-x="1851" d="M104 516q0 194 75 369t202.5 301t304 200t371.5 74q318 0 508 -171t190 -458q0 -174 -70.5 -334t-187.5 -257t-244 -97q-83 0 -132 40.5t-58 117.5q-78 -89 -141 -123.5t-148 -34.5q-137 0 -221 94.5t-84 249.5q0 153 62.5 287t168.5 213.5t228 79.5q104 0 174 -61 q19 -14 32.5 -31t36.5 -55l25 104h172l-65 -315q-13 -52 -17 -74q-39 -175 -39 -256q0 -90 58 -90q29 0 65 26q98 69 163.5 218t65.5 305q0 221 -148.5 353t-397.5 132q-159 0 -306.5 -65.5t-254.5 -175t-171.5 -259.5t-64.5 -313q0 -284 189.5 -454.5t504.5 -170.5 q192 0 373 72q101 39 169 84t177 143l90 -104q-126 -111 -205 -161.5t-196 -96.5q-195 -74 -395 -74q-254 0 -449.5 96t-302.5 270.5t-107 401.5zM668 496q0 -89 44 -141t119 -52q70 0 135.5 57t105.5 151t40 194v12q0 88 -47.5 141t-120.5 53q-112 0 -194 -123.5 t-82 -291.5z" />
<glyph unicode="A" horiz-adv-x="1792" d="M2 0l698 1446h392l698 -1446h-406l-122 272h-742l-123 -272h-395zM637 528h508l-252 566z" />
<glyph unicode="B" horiz-adv-x="1748" d="M158 0v1446h938q47 0 75.5 -1t82 -7t91.5 -17.5t81.5 -35.5t74.5 -58q82 -91 82 -227v-8q0 -57 -14 -103q-15 -50 -38.5 -82t-58 -58t-64 -39.5t-65.5 -25.5q41 -10 74.5 -21.5t80.5 -39.5t79 -64.5t55.5 -98.5t24.5 -140q0 -151 -64 -244q-24 -37 -54 -65.5t-58 -46.5 t-66 -31t-65.5 -19.5t-69.5 -9.5t-64.5 -3.5t-64.5 -0.5h-993zM516 254h557h31t37.5 4t44 10.5t40 21t37 34.5t23.5 53t10 74q0 176 -192 176h-588v-373zM516 879h518q1 0 13 -0.5t20 -0.5t24 1.5t27.5 4t27.5 8t27.5 13.5t24 20.5t20 28t12.5 37t5 47.5q0 45 -14.5 77.5 t-32 47.5t-46.5 23t-43 9t-36 1h-547v-317z" />
<glyph unicode="C" horiz-adv-x="1835" d="M88 725q0 249 117 424q39 58 92 108q55 53 102 82q90 60 237 106t341 46q47 0 97 -4t136.5 -17.5t179.5 -48.5t171 -88q137 -91 217 -231q16 -32 28 -62l-395 -49q-19 29 -30.5 45.5t-44.5 50t-70 58.5q-121 80 -289 80q-124 0 -225 -43q-138 -57 -213.5 -181t-75.5 -280 q0 -77 23.5 -155t66.5 -140q30 -45 90 -92q143 -117 344 -117q250 0 381 156q30 32 74 114l381 5q-20 -75 -51 -138q-51 -101 -150 -188q-246 -215 -666 -215q-366 0 -594 170q-63 47 -111 104t-76.5 116.5t-47.5 113.5t-26.5 110.5t-10 90t-2.5 69.5z" />
<glyph unicode="D" horiz-adv-x="1835" d="M158 0v1446h792q152 0 266 -23.5t224 -91.5q67 -41 116 -92q92 -95 137.5 -230t45.5 -280q0 -343 -213 -541q-113 -108 -271 -153q-68 -20 -140.5 -27.5t-211.5 -7.5h-745zM518 256h402q146 0 223 29q235 83 235 454q0 31 -2.5 60t-13 91t-40.5 120t-77 98q-39 33 -98 55 q-80 27 -211 27h-418v-934z" />
<glyph unicode="E" horiz-adv-x="1622" d="M158 0v1446h1347v-260h-985v-326h953v-258h-953v-344h1026v-258h-1388z" />
<glyph unicode="F" horiz-adv-x="1492" d="M160 0v1446h1337v-260h-977v-369h920v-258h-920v-559h-360z" />
<glyph unicode="G" horiz-adv-x="1961" d="M88 729q0 92 20.5 178t54 150.5t62.5 106t58 73.5q58 61 137 113q128 81 273 113t319 32q49 0 91 -2t134.5 -16.5t169.5 -40.5t170 -81.5t162 -131.5q43 -49 96 -140l-399 -55q-41 51 -80 86q-132 113 -359 113q-142 0 -266 -54t-194 -165q-76 -118 -76 -283 q0 -108 37 -201q27 -69 70.5 -122.5t95 -85t100.5 -52t102 -29.5t83.5 -11.5t60.5 -2.5q128 0 252.5 44.5t201.5 131.5q39 44 68 117h-473v260h776v-774h-276v166q-20 -20 -52 -45q-152 -122 -387 -154q-66 -10 -159 -10q-365 0 -586 162q-31 22 -56 43.5t-59 60t-60 80.5 t-51 104.5t-40 133.5q-21 108 -21 188z" />
<glyph unicode="H" horiz-adv-x="1921" d="M158 0v1446h362v-557h873v557h362v-1446h-362v621h-873v-621h-362z" />
<glyph unicode="I" horiz-adv-x="681" d="M160 0v1446h362v-1446h-362z" />
<glyph unicode="J" horiz-adv-x="980" d="M66 4l2 299q1 0 15.5 -2.5t37 -6t48.5 -7t55 -6t50 -2.5q144 0 177 102q12 35 12 90v975h358v-989q0 -49 -2 -74q-9 -186 -110 -287q-51 -53 -146 -91t-231 -38q-70 0 -123.5 8.5t-142.5 28.5z" />
<glyph unicode="K" horiz-adv-x="1705" d="M158 0v1446h360v-633l705 633h467l-705 -610l803 -836h-485l-566 623l-219 -189v-434h-360z" />
<glyph unicode="L" horiz-adv-x="1366" d="M160 0v1446h362v-1180h803v-266h-1165z" />
<glyph unicode="M" horiz-adv-x="2260" d="M158 0v1446h524l448 -1061l445 1061h518v-1446h-344l8 1112l-465 -1112h-329l-469 1112l8 -1112h-344z" />
<glyph unicode="N" horiz-adv-x="1921" d="M158 0v1446h362l887 -1010v1010h344v-1446h-356l-893 1014v-1014h-344z" />
<glyph unicode="O" horiz-adv-x="1961" d="M90 723q0 96 18 182t45 146.5t65 114.5t70.5 86.5t69.5 60.5q214 164 564 178q24 1 48 1q120 0 246 -21q150 -25 265 -82q62 -33 114 -70q70 -53 115 -109q60 -71 107 -191t47 -282q0 -99 -17 -184q-7 -36 -16.5 -70.5t-32 -87.5t-53 -100t-81 -100t-112.5 -95 q-223 -147 -571 -147q-154 0 -284 28.5t-221 78.5t-153 104t-104 117q-50 72 -89.5 183.5t-39.5 258.5zM463 713q0 -118 39 -209q17 -46 55 -98q2 -2 10.5 -13.5t16.5 -21t21 -23t26 -24.5q129 -111 346 -111q114 0 209 35q59 21 107 54t79 68.5t55 78.5t36.5 80t20 77 t9.5 65.5t2 49.5q0 210 -129 352q-72 81 -180 121q-100 37 -209 37h-16q-117 -7 -209 -47q-55 -25 -100 -59t-74.5 -69.5t-51.5 -77t-33.5 -77t-18.5 -74.5t-9 -64t-2 -50z" />
<glyph unicode="P" horiz-adv-x="1622" d="M158 0v1446h893q73 0 110 -2q269 -18 371 -193q63 -100 63 -258q0 -119 -41 -207q-19 -48 -55 -88q-44 -50 -94 -82q-53 -32 -126 -48.5t-126 -19.5t-135 -3h-504v-545h-356zM514 799h444q128 0 177 20q100 42 100 174q0 19 -3.5 39.5t-14 54t-37.5 60.5t-68 39 q-31 10 -90 10h-508v-397z" />
<glyph unicode="Q" horiz-adv-x="1961" d="M90 723q0 286 154 477q47 59 109 107t121 78t128 51.5t121 32t111 16.5t86.5 7t58.5 1q49 0 107.5 -4t168 -26t195.5 -60q51 -22 143 -84q67 -50 105 -94q64 -70 115 -195t51 -293q0 -246 -109 -424q-16 -30 -59 -84l266 -137l-164 -272l-362 219q-51 -21 -88 -33 q-180 -53 -371 -53q-123 0 -232 20t-189 51.5t-147.5 75.5t-112 88t-77.5 93q-50 72 -89.5 183.5t-39.5 258.5zM463 713q0 -118 39 -209q17 -46 55 -98q2 -2 10.5 -13.5t16.5 -21t21 -23t26 -24.5q129 -111 346 -111q114 0 209 35q59 21 107 54t79 68.5t55 78.5t36.5 80 t20 77t9.5 65.5t2 49.5q0 210 -129 352q-73 81 -180 121q-100 37 -209 37h-16q-117 -7 -209 -47q-55 -25 -100 -59t-74.5 -69.5t-51.5 -77t-33.5 -77t-18.5 -74.5t-9 -64t-2 -50z" />
<glyph unicode="R" horiz-adv-x="1748" d="M160 0v1446h995q151 0 240 -27q137 -40 212.5 -149.5t75.5 -255.5q0 -107 -38 -191q-46 -101 -128.5 -148.5t-209.5 -70.5l440 -604h-428l-385 582h-414v-582h-360zM520 838h580q67 0 90 6q20 5 38.5 14t40.5 27.5t35 50.5t13 74q0 64 -29 108q-21 33 -56.5 50 t-65.5 20.5t-76 3.5h-570v-354z" />
<glyph unicode="S" horiz-adv-x="1662" d="M43 362l330 84q31 -64 86 -110.5t124 -70t136 -34t139 -10.5q200 0 295 66q70 47 70 125q0 61 -47 96q-31 24 -91 38t-180 32q-177 27 -239 37.5t-146.5 31.5t-140.5 47q-25 12 -49.5 26.5t-58.5 45t-58.5 66t-42.5 90t-18 116.5q0 208 176 328q183 125 499 125 q169 0 279.5 -24.5t200.5 -67.5q100 -43 180 -123q49 -48 98 -131l-342 -86q-18 32 -33 47q-110 127 -385 127q-65 0 -120 -8q-63 -10 -91 -21q-112 -42 -112 -139q0 -51 30 -79.5t84 -45.5q45 -14 134.5 -30.5t194.5 -34t136 -23.5q129 -23 197 -45q26 -9 43.5 -15.5 t51 -23.5t56.5 -35t52 -47.5t46.5 -63.5t29.5 -82.5t12 -103.5q0 -45 -7 -87t-29 -94.5t-58 -96t-99.5 -85.5t-148.5 -69q-91 -28 -240 -43q-77 -6 -153 -6q-304 0 -504 108q-43 22 -101 66q-52 41 -93 91.5t-58 80.5q-16 23 -35 61z" />
<glyph unicode="T" horiz-adv-x="1492" d="M25 1182v264h1435v-264h-534v-1182h-365v1182h-536z" />
<glyph unicode="U" horiz-adv-x="1878" d="M154 606v840h360v-852q0 -94 23.5 -158.5t91.5 -113.5q109 -78 313 -78q170 0 270 57q77 42 115 115q25 52 25 127v903h360v-842q0 -84 -3 -131.5t-20 -112.5t-51 -120q-42 -63 -86 -103q-108 -96 -275 -141t-337 -45q-149 0 -283 29q-103 23 -185.5 61t-136 84.5 t-86.5 91.5t-54 94q-24 55 -32.5 116.5t-8.5 178.5z" />
<glyph unicode="V" horiz-adv-x="1662" d="M0 1446h399l432 -1067l435 1067h389l-649 -1446h-353z" />
<glyph unicode="W" horiz-adv-x="2174" d="M-2 1446h352l217 -987l332 987h377l326 -987l219 987h346l-379 -1446h-354l-351 1053l-344 -1053h-360z" />
<glyph unicode="X" horiz-adv-x="1792" d="M0 0l662 758l-578 688h453l358 -469l365 469h444l-576 -688l660 -758h-459l-434 541l-434 -541h-461z" />
<glyph unicode="Y" horiz-adv-x="1748" d="M2 1446h444l426 -604l428 604h441l-690 -903v-543h-361v543z" />
<glyph unicode="Z" horiz-adv-x="1662" d="M80 0v264l997 926h-925v256h1415v-256l-1000 -926h1000v-264h-1487z" />
<glyph unicode="[" horiz-adv-x="768" d="M240 -309v1851h503v-182h-225v-1491h225v-178h-503z" />
<glyph unicode="\" horiz-adv-x="1024" d="M43 1446h295l643 -1446h-291z" />
<glyph unicode="]" horiz-adv-x="768" d="M25 -127h225v1491h-225v176h503v-1849h-503v182z" />
<glyph unicode="^" horiz-adv-x="1581" d="M209 586l436 860h301l428 -860l-342 2l-244 510l-247 -512h-332z" />
<glyph unicode="_" horiz-adv-x="1024" d="M-20 -254h1064v-213h-1064v213z" />
<glyph unicode="`" horiz-adv-x="768" d="M154 1425h348l112 -256h-204z" />
<glyph unicode="a" d="M84 317q0 195 154 273q59 28 158.5 42.5t163 16.5t163.5 2h321v17.5v19t-0.5 18t-2.5 19t-5 17.5t-8 18q-47 80 -276 80q-154 0 -217 -35q-34 -17 -48 -39q-5 -9 -8 -23l-342 5q19 111 86 182q71 74 199.5 108t339.5 35q264 0 407 -57q114 -50 160 -119q20 -29 32 -64 t16.5 -78t5.5 -70t1 -73v-485q0 -19 2 -34.5t4 -25t8.5 -20.5t9 -15t12 -16t12.5 -16h-369q-18 58 -21 111q-4 -2 -30.5 -18t-36.5 -21.5t-37.5 -20.5t-45 -21.5t-47.5 -18t-56.5 -17t-60.5 -12t-71 -9t-77 -2.5q-291 0 -412 131q-84 90 -84 215zM438 328q0 -30 19 -60 q49 -71 209 -71q58 0 106 10q19 3 46.5 12.5t68.5 28t79.5 52.5t59.5 77q11 21 14 41q2 15 2 41v20h-235q-71 0 -156 -10q-85 -8 -129 -25t-65 -53q-19 -30 -19 -63z" />
<glyph unicode="b" d="M152 0v1446h335v-531q53 45 86 66q145 92 347 92q157 0 272 -61q54 -30 98 -70q53 -53 78 -90q33 -47 60.5 -129.5t27.5 -185.5q0 -123 -41 -226q-65 -167 -205.5 -257.5t-324.5 -90.5q-167 0 -310 82q-21 11 -88 57v-102h-335zM483 518q0 -94 31 -153q38 -74 120.5 -116 t170.5 -42q70 0 133 29q29 13 55 32.5t53 52.5t43.5 85t16.5 116q0 126 -59 207q-43 57 -115 85q-60 23 -125 23q-12 0 -23 -1q-131 -7 -213 -86q-88 -83 -88 -232z" />
<glyph unicode="c" horiz-adv-x="1439" d="M78 518q0 150 67 266q43 75 114 133.5t155.5 93t172.5 51.5t175 17q41 0 89 -5t128.5 -21.5t163 -58t145.5 -103.5q59 -56 103 -146l-353 -36q0 1 -11 14t-21 22q-89 80 -244 80q-64 0 -131 -22q-96 -33 -153.5 -108.5t-57.5 -174.5q0 -65 26 -123q14 -32 36 -60.5 t58.5 -58.5t93 -47.5t126.5 -17.5q27 0 60 3.5t90.5 23.5t97.5 53q34 27 59 76l344 -50q-30 -59 -70 -108q-103 -124 -263.5 -189t-332.5 -65q-185 0 -342 70q-32 15 -104 61q-35 25 -67 56.5t-70 84t-61 128t-23 161.5z" />
<glyph unicode="d" d="M80 510q0 129 47 240q66 152 205 235.5t309 83.5q37 0 81 -5t118.5 -26t136.5 -57q16 -10 32 -21.5t28 -20.5t16 -11v518h331v-1446h-331v125q-51 -49 -76 -66q-51 -37 -137.5 -66.5t-198.5 -29.5t-221.5 40t-186.5 114q-35 34 -66 79.5t-59 131.5t-28 182zM428 520 q0 -60 23 -137q71 -190 284 -190h4q100 0 166 37.5t101 86.5q53 81 53 205q0 100 -39 166q-42 72 -130 108q-77 32 -155 32q-11 0 -22 -1q-82 -5 -138 -36q-72 -40 -109.5 -112t-37.5 -159z" />
<glyph unicode="e" d="M76 528q0 259 194 406q187 143 500 143q100 0 194 -19.5t181.5 -60t156.5 -111t107 -163.5q39 -97 41 -262h-1028q9 -44 24 -80q34 -73 117 -125.5t221 -52.5q170 0 273 82q34 30 55 61l350 -35q-10 -18 -47 -71q-40 -53 -101.5 -104.5t-121.5 -82.5q-183 -94 -426 -94 q-156 0 -279.5 36.5t-198.5 94t-124.5 135t-68.5 152t-19 151.5zM432 647h645q-15 58 -28 80q-39 59 -120.5 86t-164.5 27q-82 0 -158.5 -25t-122.5 -78q-25 -29 -51 -90z" />
<glyph unicode="f" horiz-adv-x="768" d="M31 836v200h164v90q0 7 1 22.5t1 22.5q0 114 59 193q84 109 295 109q90 0 217 -31v-219q-49 16 -90 16q-74 0 -113 -39q-14 -14 -24 -41q-9 -31 -9 -69v-54h236v-200h-236v-836h-337v836h-164z" />
<glyph unicode="g" d="M78 543q0 82 24.5 167t69.5 148q35 48 80.5 85.5t93 59.5t90.5 36.5t88 20t70 7.5t49 2q191 0 330 -86q28 -18 90 -70v123h321v-874q0 -160 -16 -228q-71 -294 -475 -342q-95 -10 -174 -10q-86 0 -154 8q-246 30 -366 164q-14 16 -26 32.5t-21 29.5t-17.5 29.5t-13 26.5 t-11 26t-8.5 22.5t-6.5 21.5t-5.5 17h365q14 -43 47 -74q36 -35 91 -50t152 -15q223 0 289 127q29 60 29 144v11l-2 111q-46 -44 -74 -63q-146 -105 -360 -105q-110 0 -201 29t-143 63q-32 21 -63 52t-65.5 80t-55.5 120.5t-21 153.5zM428 559q0 -29 5.5 -60t30.5 -78.5 t68 -80.5q76 -59 201 -59q82 0 159 29.5t120 88.5q49 77 49 162q0 68 -28.5 121.5t-76.5 85.5t-106 48q-55 15 -114 15h-7q-129 -2 -215 -73t-86 -199z" />
<glyph unicode="h" horiz-adv-x="1579" d="M152 0v1446h337v-541q33 33 68 58q142 100 369 100q107 0 204 -27q24 -6 52 -16.5t71.5 -33.5t82.5 -63.5t61 -91.5q17 -37 23.5 -80t6.5 -122v-629h-340v563q0 87 -18 131q-28 71 -105 103t-163 32q-20 0 -44 -2.5t-76 -12t-98 -38t-71 -71.5q-23 -44 -23 -109v-596 h-337z" />
<glyph unicode="i" horiz-adv-x="641" d="M152 0v1036h335v-1036h-335zM152 1167v230h335v-230h-335z" />
<glyph unicode="j" horiz-adv-x="641" d="M0 -154q86 5 115 27q35 26 35 96v1067h337v-1028q0 -103 -10 -160q-9 -49 -27.5 -87.5t-40.5 -63.5t-56.5 -42.5t-63.5 -27t-75 -14t-77.5 -5.5t-83.5 -1h-53v239zM150 1169v228h337v-228h-337z" />
<glyph unicode="k" horiz-adv-x="1449" d="M150 0v1446h335v-825l478 415h438l-481 -403l534 -633h-430l-346 440l-193 -164v-276h-335z" />
<glyph unicode="l" horiz-adv-x="641" d="M150 0v1446h335v-1446h-335z" />
<glyph unicode="m" horiz-adv-x="2347" d="M150 0v1036h319v-159q3 3 14 19t26 33t32 32q53 45 145 78.5t219 33.5q209 0 326 -98q16 -14 30.5 -29.5t21.5 -26t16.5 -25t11.5 -17.5l6 7q6 8 15 18.5t16 17.5q151 151 419 151q236 0 347 -119q35 -41 53 -86q11 -28 16 -62t5.5 -54t0.5 -66v-684h-336l-2 629 q0 92 -28 137q-33 52 -103 68q-48 12 -94 12q-88 0 -162 -33q-43 -21 -69 -48.5t-37 -66.5t-14 -70t-3 -85v-543h-342v594q0 65 -8 102q-15 59 -64.5 100.5t-148.5 41.5q-225 0 -276 -146q-17 -47 -17 -129v-563h-335z" />
<glyph unicode="n" horiz-adv-x="1579" d="M150 0v1036h333v-147q42 42 74 67q57 44 154.5 77.5t228.5 33.5q139 0 235.5 -42t149.5 -99q45 -48 66 -109q15 -38 22 -82.5t8.5 -76.5t1.5 -85v-573h-338v528q0 82 -14 137.5t-61 96.5q-69 65 -213 65q-47 0 -89.5 -7.5t-85.5 -24t-75.5 -48.5t-48.5 -77 q-15 -44 -15 -113v-557h-333z" />
<glyph unicode="o" horiz-adv-x="1579" d="M78 520q0 155 78 277q26 41 63 79t94.5 77t126 67t162.5 46q89 17 188 17h11q186 0 350 -63t258 -199q88 -130 88 -286q0 -172 -86 -302q-45 -70 -121 -127q-195 -149 -502 -149q-116 0 -216 22.5t-158 47.5q-69 27 -123 69q-65 49 -109 105q-104 132 -104 319zM426 514 q0 -97 55.5 -174t147.5 -111q68 -22 162 -22q81 0 155 24q64 22 108.5 63t63 88t25 81t6.5 65q0 92 -45 164q-25 39 -63 71t-110 56q-60 20 -131 20q-15 0 -30 -1q-160 -7 -250 -93q-94 -89 -94 -231z" />
<glyph unicode="p" d="M147 -393v1429h340v-118q36 36 76 59q50 32 133 58t189 26q111 0 225 -37q169 -61 257.5 -194.5t88.5 -317.5q0 -234 -139 -377q-60 -65 -165 -114.5t-255 -49.5q-53 0 -115 9q-174 27 -295 143v-516h-340zM487 514q0 -60 19 -115q32 -95 114.5 -144.5t186.5 -49.5 q80 0 143 28q28 13 53.5 34t51.5 54t41.5 84t15.5 113q0 44 -12 98q-7 25 -20.5 53.5t-49 68t-80.5 59.5q-68 28 -148 28h-11q-102 0 -175 -49q-64 -43 -96.5 -112.5t-32.5 -149.5z" />
<glyph unicode="q" horiz-adv-x="1492" d="M78 522q0 230 135 373q42 46 96.5 80t101.5 51t98.5 27t80.5 12t57 2q194 0 334 -90q34 -22 68 -51v110h333v-1429h-333v520q-56 -45 -72 -55q-54 -38 -144 -68.5t-208 -30.5q-123 0 -228 41q-39 15 -77.5 38.5t-84 66.5t-79 96t-56 133.5t-22.5 173.5zM422 520 q0 -83 24 -137q35 -83 115.5 -126.5t177.5 -43.5q104 0 176.5 42.5t102.5 92.5q41 74 41 184q0 112 -45 187q-42 67 -120 99q-73 30 -157 30h-10q-121 -13 -180 -51q-52 -34 -88.5 -102t-36.5 -175z" />
<glyph unicode="r" horiz-adv-x="937" d="M150 0v1036h339v-176q29 44 43 60q120 143 384 151h10v-305q-62 4 -90 4q-183 0 -273 -76q-36 -31 -49 -63q-25 -51 -25 -131v-500h-339z" />
<glyph unicode="s" horiz-adv-x="1449" d="M90 326l363 26q18 -61 63 -98q80 -61 248 -61q127 0 190 28q62 25 62 78q0 18 -6 31.5t-21.5 23t-29 16t-42 12.5t-47 9t-55.5 8q-53 7 -160.5 17.5t-160.5 17.5q-139 18 -222 70q-122 76 -122 225q0 89 43 156q58 94 199.5 148t361.5 54q256 0 413 -86q67 -36 109 -81 q59 -63 86 -162l-350 -23q-12 36 -49 66q-75 61 -232 61q-103 0 -169 -26q-65 -26 -64 -75q0 -34 30 -54q45 -29 244 -50q40 -4 119 -11t119 -11q155 -17 229 -64q61 -38 94 -101t33 -136q0 -172 -157 -271.5t-459 -99.5q-299 0 -457 90q-105 57 -162 162q-27 52 -41 111z " />
<glyph unicode="t" horiz-adv-x="768" d="M12 838v198h168v277h336v-277h232v-198h-232v-469q0 -61 19 -88q15 -20 40 -28.5t74 -8.5q2 0 101 6v-242q-164 -16 -246 -16q-40 0 -58 2q-197 12 -247 151q-19 50 -19 136v557h-168z" />
<glyph unicode="u" horiz-adv-x="1579" d="M150 403v633h337v-544q0 -41 2 -65.5t11.5 -57t27.5 -58.5q56 -75 166 -92q39 -6 88 -6q97 0 172 29q47 19 76.5 46.5t42.5 66.5t17 73.5t4 89.5v518h336v-1036h-336v147q-46 -46 -86 -73q-147 -99 -390 -99q-214 0 -342 103q-67 53 -94 115q-19 40 -25.5 83.5 t-6.5 126.5z" />
<glyph unicode="v" horiz-adv-x="1323" d="M2 1036h375l280 -743l291 743h369l-469 -1036h-381z" />
<glyph unicode="w" horiz-adv-x="2134" d="M-2 1036h364l256 -682l254 682h367l256 -682l258 682h369l-449 -1036h-356l-262 725l-258 -725h-359z" />
<glyph unicode="x" d="M-4 0l549 559l-477 477h456l248 -305l246 305h450l-477 -477l545 -559h-451l-313 375l-321 -375h-455z" />
<glyph unicode="y" horiz-adv-x="1280" d="M4 1036h361l286 -747l275 747h356l-487 -1104q-51 -108 -84 -159q-34 -55 -72.5 -89.5t-86.5 -51t-94 -22t-116 -5.5q-110 0 -250 10l2 244q151 -11 170 -11q89 0 129 33q14 11 26.5 29.5t20 33t27.5 58.5z" />
<glyph unicode="z" horiz-adv-x="1366" d="M86 0v170l696 639h-655v227h1149v-178l-670 -622h670v-236h-1190z" />
<glyph unicode="{" horiz-adv-x="733" d="M88 545v135q85 23 115.5 79.5t29.5 192.5l-2 236q0 86 9 132t34 89q81 145 340 145h105v-145q-112 -10 -150 -35q-32 -22 -42.5 -63t-10.5 -150v-223q0 -82 -6 -122.5t-25 -80.5q-24 -48 -59 -75.5t-100 -47.5q44 -12 65.5 -22.5t42.5 -30.5q33 -30 51 -67q19 -39 25 -81 t6 -124v-221q0 -123 12 -160q8 -31 41 -53q43 -28 150 -35v-148h-105q-213 0 -301 94q-48 48 -67 121q-15 59 -15 154l2 233q1 137 -29 193.5t-116 79.5z" />
<glyph unicode="|" horiz-adv-x="516" d="M121 -309v1849h274v-1849h-274z" />
<glyph unicode="}" horiz-adv-x="733" d="M14 -182q107 7 150 35q33 21 43 62t10 151v223q0 81 6.5 122.5t26.5 80.5q23 47 57.5 73.5t100.5 48.5q-69 19 -109 54q-32 29 -49 67q-20 39 -26.5 80.5t-6.5 124.5v221q0 123 -12 160q-9 34 -41 53q-43 28 -150 35v145h105q214 0 303 -92q44 -44 67 -121 q13 -51 13 -153v-234q0 -138 29 -193.5t114 -78.5v-135q-84 -23 -113.5 -79.5t-29.5 -193.5v-235q0 -87 -8.5 -133t-32.5 -88q-80 -146 -342 -146h-105v146z" />
<glyph unicode="~" horiz-adv-x="1617" d="M117 629q111 108 206 155t203 47q60 0 115.5 -13.5t161.5 -53.5l98 -37q124 -47 180 -47q77 0 158 43q55 31 137 100l123 -231q-58 -58 -96.5 -86t-104.5 -60q-113 -55 -219 -55q-51 0 -104.5 14t-153.5 52l-86 32q-134 52 -213 52q-67 0 -121 -27t-133 -98l-22 -21z" />
<glyph unicode="&#xa1;" horiz-adv-x="681" d="M127 0v573l51 451h232l51 -451v-573h-334zM127 1192v254h334v-254h-334z" />
<glyph unicode="&#xa2;" horiz-adv-x="1449" d="M76 526q1 103 35 190t90 148t131.5 105.5t158.5 68.5t173 31v227h163v-225q66 -5 119 -13.5t118 -29t117.5 -52t106 -84t94.5 -122.5l-340 -70q-66 96 -215 121v-600q102 20 154.5 53.5t87.5 96.5l336 -70q-23 -39 -55 -80q-30 -38 -64.5 -70.5t-71 -56.5t-71.5 -43 t-72.5 -32t-67 -22.5t-62.5 -15.5t-50.5 -8.5t-40.5 -4.5l-23 -3v-266h-165v266q-114 14 -177 33q-197 60 -304.5 203t-104.5 325zM420 512q1 -86 41 -147.5t96 -96.5q18 -11 43.5 -21.5t42 -15t19.5 -4.5v588q-64 -19 -111 -50.5t-71.5 -63.5t-39 -70t-18 -65t-2.5 -54z " />
<glyph unicode="&#xa3;" horiz-adv-x="1622" d="M66 242q0 59 26 108q25 49 82.5 85t151.5 36q73 0 136.5 -19.5t145.5 -58.5q-9 71 -34 122.5t-99 150.5h-344v127l236 2q-111 147 -111 303q0 139 98 235q55 53 138 86q145 62 389 62q30 0 88 -4q27 -1 53.5 -3.5t82.5 -14.5t103.5 -31.5t101 -58.5t89.5 -91 q63 -94 88 -266l-357 -21q9 118 -40 189q-59 84 -205 84q-132 0 -198 -51t-66 -132q0 -45 16 -88q4 -11 10.5 -25t13 -26t18.5 -32.5t20 -32.5t25.5 -40.5t27.5 -43.5h338v-127h-254q1 -3 11 -22t15.5 -31t15 -36.5t15 -45t10 -49t4.5 -56.5q0 -60 -26 -141q3 -1 19 -7.5 t32 -12t38 -12t46.5 -10t48.5 -3.5q66 0 98 32q45 43 45 138q0 37 -2 57h342q-5 -71 -11 -116t-24 -105.5t-47 -106.5q-9 -15 -22 -30.5t-22.5 -24.5t-20.5 -19.5t-12 -11.5q-98 -76 -218 -76q-76 0 -155.5 30.5t-239.5 113.5q-46 -40 -57 -47q-51 -34 -134 -63t-186 -29 q-26 0 -52 3t-74.5 13.5t-93 39.5t-73.5 73q-40 61 -40 131zM262 244q0 -24 14 -45q33 -49 123 -49q46 0 84 14.5t53 26.5t37 34q-95 48 -133 62q-64 24 -102 24q-32 -2 -54 -19.5t-22 -47.5z" />
<glyph unicode="&#xa4;" horiz-adv-x="1495" d="M68 236l176 163q-49 73 -69.5 141t-20.5 154q0 164 90 295l-174 162l200 190l174 -161q136 84 312 84q84 0 152.5 -18.5t148.5 -63.5l174 161l199 -192l-170 -160q51 -89 69.5 -152t18.5 -143q0 -151 -88 -295l170 -168l-201 -188l-172 166q-93 -47 -162.5 -65.5 t-151.5 -18.5q-84 0 -151.5 19t-147.5 65l-174 -164zM446 696q0 -130 88.5 -218.5t219.5 -88.5q126 0 213.5 88t87.5 215q0 132 -87 222t-216 90t-217.5 -89t-88.5 -219z" />
<glyph unicode="&#xa5;" horiz-adv-x="1748" d="M2 1364h444l431 -565l423 565h441l-422 -524h197v-211h-367l-90 -111h457v-213h-465v-305h-361v305h-459v213h451l-86 111h-365v211h195z" />
<glyph unicode="&#xa6;" horiz-adv-x="516" d="M121 -309v758h274v-758h-274zM121 782v758h274v-758h-274z" />
<glyph unicode="&#xa7;" d="M84 57l305 62q19 -51 51 -92q51 -65 148.5 -97t195.5 -32q45 0 88.5 5t96 19t84.5 45.5t32 77.5q0 34 -18 59.5t-50.5 40.5t-60 24t-63.5 17q-3 0 -5.5 0.5t-4.5 1.5q-150 36 -250 58q-181 39 -240 58q-255 81 -292 242q-7 29 -7 60q0 107 62.5 184t167.5 119 q-66 51 -98.5 105t-32.5 131q0 99 65 180q125 160 498 160q88 0 158.5 -5.5t153.5 -25t145 -52t116 -92t82 -139.5l-274 -57q-20 48 -63.5 81.5t-99.5 49.5t-107.5 22.5t-106.5 6.5q-258 0 -258 -107q0 -21 9.5 -35t29.5 -30q21 -17 99.5 -41.5t127.5 -34.5q38 -9 144 -31.5 t179.5 -42.5t139.5 -47q213 -87 213 -280q0 -92 -45.5 -163.5t-128.5 -139.5q69 -54 102 -109t33 -133q0 -79 -30 -144.5t-82 -109.5t-116.5 -76.5t-140 -50t-145 -25.5t-139.5 -8q-105 0 -206.5 23t-193 69t-162.5 123t-106 176zM397 680q0 -52 43 -92q30 -29 130.5 -58.5 t241 -59t159.5 -34.5q21 -6 64 -18.5t65 -18.5q67 81 67 160q0 57 -49 100q-14 12 -52.5 26t-95 28.5t-101 24.5t-103.5 22t-68 14q-118 28 -202 57q-99 -69 -99 -151z" />
<glyph unicode="&#xa8;" horiz-adv-x="768" d="M23 1171v252h301v-252h-301zM442 1171v252h303v-252h-303z" />
<glyph unicode="&#xa9;" horiz-adv-x="1693" d="M119 723q0 200 96.5 367.5t264 264.5t368.5 97t368.5 -96.5t264 -263.5t96.5 -367q0 -152 -56.5 -287.5t-154 -233t-233 -154t-287.5 -56.5q-198 0 -365.5 97t-264.5 264.5t-97 367.5zM213 721q0 -176 84.5 -324t230.5 -233.5t320 -85.5q130 0 247.5 51t202.5 137 t135 205t50 250q0 178 -84 327t-230 234.5t-321 85.5q-129 0 -246.5 -51t-202.5 -137.5t-135.5 -206.5t-50.5 -252zM406 723q0 192 133.5 311t349.5 119q171 0 280 -74q49 -32 77.5 -70t58.5 -108l-209 -22q-59 116 -207 116q-123 0 -200 -75.5t-77 -196.5 q0 -117 73.5 -191.5t188.5 -74.5q80 0 140 35t92 102l203 -21q-46 -129 -164 -202.5t-277 -73.5q-203 0 -332.5 119.5t-129.5 306.5z" />
<glyph unicode="&#xaa;" horiz-adv-x="980" d="M45 967q0 142 141 190q20 7 43.5 12t56.5 8t57 5t72 3t74 1.5t89 1t92 0.5q0 43 -15 61q-34 47 -163 47h-40.5t-39.5 -3t-43.5 -9t-32.5 -19t-27 -32h-231q8 62 36.5 105t92.5 75q49 25 135.5 36t159.5 11q304 0 377 -141q22 -43 22 -123v-328q0 -30 5.5 -51.5t11 -30 t22.5 -34.5h-252q-7 20 -16 73q-32 -25 -68 -43q-103 -53 -235 -53q-167 0 -255 76q-69 62 -69 162zM289 969q0 -40 37.5 -60t99.5 -20q81 0 145 33.5t88 78.5q8 16 11 62q-200 -5 -240 -8q-86 -8 -116 -32q-24 -22 -25 -54z" />
<glyph unicode="&#xab;" horiz-adv-x="1150" d="M86 412v215l459 346v-209l-254 -246l254 -235v-211zM590 414v213l459 346v-209l-254 -246l254 -233v-211z" />
<glyph unicode="&#xac;" horiz-adv-x="1581" d="M115 481v267h1276v-711h-326v444h-950z" />
<glyph unicode="&#xad;" horiz-adv-x="804" d="M68 492v266h669v-266h-669z" />
<glyph unicode="&#xae;" horiz-adv-x="1693" d="M119 723q0 200 96.5 367.5t264 264.5t368.5 97t368.5 -96.5t264 -263.5t96.5 -367q0 -152 -56.5 -287.5t-154 -233t-233 -154t-287.5 -56.5q-198 0 -365.5 97t-264.5 264.5t-97 367.5zM201 721q0 -133 51 -254t137 -208t205.5 -138t251.5 -51q133 0 253 51t207 138 t138 208t51 254q0 136 -50.5 257.5t-137 208.5t-206.5 138t-255 51q-175 0 -323.5 -87.5t-235 -238.5t-86.5 -329zM502 301v852h362q203 0 283 -49q102 -63 102 -205q0 -100 -54.5 -167.5t-154.5 -92.5l213 -338h-219l-194 326h-146v-326h-192zM694 780h162q76 0 115 8 q38 7 60 35t22 68q0 63 -43 88q-23 13 -55 17.5t-107 4.5h-154v-221z" />
<glyph unicode="&#xaf;" horiz-adv-x="768" d="M23 1171v191h722v-191h-722z" />
<glyph unicode="&#xb0;" horiz-adv-x="724" d="M10 1192q0 147 102.5 250.5t249.5 103.5q148 0 250.5 -103t102.5 -251q0 -145 -104 -248.5t-249 -103.5t-248.5 103.5t-103.5 248.5zM215 1192q0 -60 43.5 -104t103.5 -44t104 44t44 104q0 61 -43.5 103t-104.5 42q-62 0 -104.5 -42t-42.5 -103z" />
<glyph unicode="&#xb1;" horiz-adv-x="1581" d="M182 0v266h1217v-266h-1217zM182 795v266h447l2 395h323v-395h445v-266h-445v-410h-325v410h-447z" />
<glyph unicode="&#xb2;" horiz-adv-x="1024" d="M53 422q0 112 21 180q23 68 65.5 119.5t109.5 88.5t106.5 53.5t118.5 42.5q13 5 20 7q92 29 110 41q72 40 72 103q0 104 -172 104q-97 0 -135.5 -35t-46.5 -106h-240q0 6 3 32t13 70t25 70q85 148 362 151q288 3 389 -118q58 -71 58 -166q0 -125 -98 -209 q-30 -25 -80 -50t-86 -38.5t-98 -34.5t-74 -25q-75 -26 -107 -43t-61 -53h581v-184h-856z" />
<glyph unicode="&#xb3;" horiz-adv-x="1024" d="M23 723l251 12q11 -77 54 -112t151 -35q221 0 221 114q0 48 -45 80q-12 8 -31.5 12.5t-47 6.5t-44.5 2.5t-47.5 0t-31.5 -0.5h-99v162h146q98 0 136 23q40 24 40 73q0 102 -166 102q-41 0 -68 -2t-63.5 -15t-56.5 -38q-11 -13 -23 -55l-250 10q8 34 11.5 49t15 42.5 t26.5 47.5q107 146 394 146q440 0 440 -256q0 -39 -13.5 -72.5t-33 -54t-45 -37t-43.5 -23.5t-35 -12q79 -21 117 -48q71 -53 71 -149q0 -129 -122 -210.5t-322 -86.5q-157 -3 -268.5 41t-165.5 123q-17 26 -28.5 57t-15 49.5t-9.5 53.5z" />
<glyph unicode="&#xb4;" horiz-adv-x="768" d="M154 1171l108 254h352l-249 -254h-211z" />
<glyph unicode="&#xb5;" horiz-adv-x="1579" d="M150 -393v1429h337v-567q0 -63 15 -107q26 -72 97 -110.5t177 -38.5q177 0 258 84q33 36 45.5 85.5t12.5 145.5v508h335v-893q0 -58 8.5 -82.5t39.5 -60.5h-363q-18 53 -18 123v24q-139 -170 -338 -170q-75 0 -152 25q-51 18 -119 70v-465h-335z" />
<glyph unicode="&#xb6;" horiz-adv-x="1288" d="M121 1020q0 94 33 177t94 140q63 59 145 84t213 25h502v-168h-72v-1618h-176v1618h-262v-1620h-180l2 973q-62 19 -88 30t-58 33q-72 47 -112.5 133.5t-40.5 192.5z" />
<glyph unicode="&#xb7;" horiz-adv-x="598" d="M131 428v293h336v-293h-336z" />
<glyph unicode="&#xb8;" horiz-adv-x="768" d="M147 -209l175 219l104 -8l-104 -154q142 14 221 -34q78 -48 75 -131q0 -83 -72 -137t-212 -54q-46 0 -187 21l5 102q44 -6 90 -6q67 0 100 20q35 21 33 58q0 26 -15 41q-24 26 -84 26q-54 0 -108 -18z" />
<glyph unicode="&#xb9;" horiz-adv-x="1024" d="M207 1016v174q9 0 41.5 6t88 26t91.5 48q37 30 57 57h217v-905h-241v661q-75 -36 -121 -47.5t-133 -19.5z" />
<glyph unicode="&#xba;" horiz-adv-x="1024" d="M43 1077q0 99 40.5 175t109 120.5t150.5 67t173 22.5q59 0 120 -11.5t124 -39.5t111.5 -69t79 -105t30.5 -143q0 -81 -28.5 -147.5t-74.5 -110.5t-107.5 -73.5t-126 -42.5t-130.5 -13q-15 0 -26 0.5t-52 4t-77.5 14.5t-82.5 28.5t-89 49t-76 73.5q-68 88 -68 200z M283 1083q0 -99 68 -149.5t165 -50.5t162 51t65 151q0 34 -10.5 66t-34 63.5t-69.5 51.5t-109 22q-46 0 -96 -12q-39 -11 -67 -32.5t-42 -42.5t-21.5 -47.5t-9 -41t-1.5 -29.5z" />
<glyph unicode="&#xbb;" horiz-adv-x="1150" d="M98 72v211l252 243l-252 234v213l461 -342v-211zM600 74v209l254 243l-254 236v213l461 -342v-213z" />
<glyph unicode="&#xbc;" horiz-adv-x="2304" d="M207 1016v174q9 0 41.5 6t88 26t91.5 48q37 30 57 57h217v-905h-241v661q-75 -36 -121 -47.5t-133 -19.5zM657 39l838 1335l145 -92l-839 -1335zM1303 182v166l542 555h248v-547h145v-172h-145v-184h-242v182h-548zM1561 354h292v324z" />
<glyph unicode="&#xbd;" horiz-adv-x="2304" d="M207 1016v174q9 0 41.5 6t88 26t91.5 48q37 30 57 57h217v-905h-241v661q-75 -36 -121 -47.5t-133 -19.5zM657 39l838 1335l145 -92l-839 -1335zM1333 0q0 112 21 180q14 40 36.5 75.5t46 61.5t59.5 50.5t62.5 39.5t69.5 32.5t65.5 25.5t65.5 22q10 3 15 5q91 28 110 40 q72 40 72 103q0 104 -172 104q-97 0 -135.5 -35t-46.5 -106h-240q0 6 3 32t13 70t25 70q86 149 362 152q287 3 389 -119q58 -71 58 -166q0 -125 -98 -209q-30 -25 -79.5 -49.5t-86.5 -38.5t-97.5 -34t-74.5 -25q-73 -25 -106.5 -43.5t-61.5 -53.5h581v-184h-856z" />
<glyph unicode="&#xbe;" horiz-adv-x="2304" d="M23 723l251 12q11 -77 54 -112t151 -35q221 0 221 114q0 48 -45 80q-12 8 -31.5 12.5t-47 6.5t-44.5 2.5t-47.5 0t-31.5 -0.5h-99v162h146q98 0 136 23q40 24 40 73q0 102 -166 102q-41 0 -68 -2t-63.5 -15t-56.5 -38q-11 -13 -23 -55l-250 10q8 34 11.5 49t15 42.5 t26.5 47.5q107 146 394 146q440 0 440 -256q0 -39 -13.5 -72.5t-33 -54t-45 -37t-43.5 -23.5t-35 -12q79 -21 117 -48q71 -53 71 -149q0 -129 -122 -210.5t-322 -86.5q-157 -3 -268.5 41t-165.5 123q-17 26 -28.5 57t-15 49.5t-9.5 53.5zM657 39l838 1335l145 -92 l-839 -1335zM1303 182v166l542 555h248v-547h145v-172h-145v-184h-242v182h-548zM1561 354h292v324z" />
<glyph unicode="&#xbf;" horiz-adv-x="1409" d="M53 381q0 56 17 106q25 76 94 143t205 144q66 34 94 62q22 24 31.5 50.5t9.5 78.5v59h338v-106q0 -106 -35 -152q-22 -29 -50.5 -51t-94.5 -64q-11 -7 -55 -36.5t-78 -53t-52 -39.5q-39 -34 -58.5 -65.5t-19.5 -77.5q0 -50 29 -88q66 -88 252 -88q77 0 131 20 q127 52 135 234l330 -17q-7 -61 -23 -127q-39 -161 -159 -241q-150 -103 -437 -103q-266 0 -421 94q-2 1 -13 9.5t-21.5 16.5t-24.5 20.5t-25 23.5q-99 107 -99 248zM504 1194v252h338v-252h-338z" />
<glyph unicode="&#xc0;" horiz-adv-x="1792" d="M2 0l698 1446h392l698 -1446h-406l-122 272h-742l-123 -272h-395zM563 1812h348l113 -256h-205zM637 528h508l-252 566z" />
<glyph unicode="&#xc1;" horiz-adv-x="1792" d="M2 0l698 1446h392l698 -1446h-406l-122 272h-742l-123 -272h-395zM637 528h508l-252 566zM754 1559l106 253h350l-249 -253h-207z" />
<glyph unicode="&#xc2;" horiz-adv-x="1792" d="M2 0l698 1446h392l698 -1446h-406l-122 272h-742l-123 -272h-395zM479 1559l197 253h418l194 -253h-231l-170 159l-172 -159h-236zM637 528h508l-252 566z" />
<glyph unicode="&#xc3;" horiz-adv-x="1792" d="M2 0l698 1446h392l698 -1446h-406l-122 272h-742l-123 -272h-395zM498 1577q0 51 16 100q16 54 65 96t142 42q39 0 95 -12t87 -21.5t43 -14.5q103 -32 156 -32q67 0 90 43q8 16 10 32h127q-12 -85 -29 -127q-56 -120 -202 -118q-25 0 -51 3t-60.5 11.5t-48.5 12 t-57.5 16.5t-46.5 14q-92 25 -119 25q-52 0 -78 -39q-3 -5 -6.5 -13t-5 -13.5t-2.5 -6.5zM637 528h508l-252 566z" />
<glyph unicode="&#xc4;" horiz-adv-x="1792" d="M2 0l698 1446h392l698 -1446h-406l-122 272h-742l-123 -272h-395zM426 1544v258h336v-258h-336zM637 528h508l-252 566zM1049 1544v258h335v-258h-335z" />
<glyph unicode="&#xc5;" horiz-adv-x="1792" d="M2 0l698 1446h392l698 -1446h-406l-122 272h-742l-123 -272h-395zM633 1692q0 52 22 90q27 46 87.5 82t152.5 37q67 1 127 -20t102.5 -71.5t42.5 -121.5q0 -45 -20 -86q-20 -42 -56 -69.5t-76.5 -37.5t-63 -13t-44.5 -3q-53 0 -96 12q-77 20 -127.5 72.5t-50.5 128.5z M637 528h508l-252 566zM791 1688q0 -46 31 -73.5t77 -27.5q59 0 85 34t26 69q0 18 -6 34q-9 29 -33 45t-43 19t-33 2q-45 -2 -74.5 -29.5t-29.5 -72.5z" />
<glyph unicode="&#xc6;" horiz-adv-x="2260" d="M4 0l817 1446h1325v-254h-729v-336h684v-254h-684v-348h756v-254h-1104v348h-489l-189 -348h-387zM717 602h352v660z" />
<glyph unicode="&#xc7;" horiz-adv-x="1835" d="M88 723q0 135 34.5 249t97 197t145.5 146t183.5 101t207.5 56.5t221 18.5h3q22 0 44.5 -0.5t81 -6t111.5 -15.5t126 -33t135 -54.5t128 -83.5t116 -116q35 -44 84 -142l-395 -49q-31 50 -53 74q-145 160 -381 160q-230 0 -375 -144t-139 -374q5 -163 88 -277 q65 -89 176 -151t260 -62q107 0 211 36t176 124q34 43 68 110l381 5q-37 -116 -76.5 -185t-132.5 -149q-50 -42 -106 -76t-110 -55t-101 -35.5t-96.5 -22t-79 -11t-64.5 -5.5t-39 -2l-68 -103q45 5 58 5q38 0 74.5 -7t75.5 -24t63 -53t24 -86q0 -56 -30 -96.5t-77.5 -59.5 t-90 -27t-82.5 -8q-57 0 -189 21l2 102q46 -6 92 -6q89 0 115 33q22 22 19 45q-2 67 -95 67q-29 0 -112 -18l-23 55l129 160l-18 2q-139 16 -257 52t-219 98.5t-171.5 148.5t-110 205.5t-39.5 265.5z" />
<glyph unicode="&#xc8;" horiz-adv-x="1622" d="M158 0v1446h1347v-260h-985v-326h953v-258h-953v-344h1026v-258h-1388zM524 1812h346l113 -256h-205z" />
<glyph unicode="&#xc9;" horiz-adv-x="1622" d="M158 0v1446h1347v-260h-985v-326h953v-258h-953v-344h1026v-258h-1388zM711 1559l106 253h348l-250 -253h-204z" />
<glyph unicode="&#xca;" horiz-adv-x="1622" d="M158 0v1446h1347v-260h-985v-326h953v-258h-953v-344h1026v-258h-1388zM436 1559l195 253h418l196 -253h-233l-170 159l-172 -159h-234z" />
<glyph unicode="&#xcb;" horiz-adv-x="1622" d="M158 0v1446h1347v-260h-985v-326h953v-258h-953v-344h1026v-258h-1388zM373 1550v256h336v-256h-336zM997 1550v256h336v-256h-336z" />
<glyph unicode="&#xcc;" horiz-adv-x="681" d="M10 1812h346l113 -256h-205zM160 0v1446h362v-1446h-362z" />
<glyph unicode="&#xcd;" horiz-adv-x="681" d="M160 0v1446h362v-1446h-362zM201 1559l106 253h348l-249 -253h-205z" />
<glyph unicode="&#xce;" horiz-adv-x="681" d="M-74 1559l195 253h418l196 -253h-233l-170 159l-172 -159h-234zM160 0v1446h362v-1446h-362z" />
<glyph unicode="&#xcf;" horiz-adv-x="681" d="M-139 1550v256h336v-256h-336zM160 0v1446h362v-1446h-362zM483 1550v256h338v-256h-338z" />
<glyph unicode="&#xd0;" horiz-adv-x="1835" d="M-2 627v235h160v584h792q197 0 328 -39q70 -22 133 -57t125 -93t106.5 -132t71.5 -179.5t25 -228.5q-2 -122 -33 -228t-80 -180.5t-114.5 -132.5t-132.5 -92t-138 -53q-117 -31 -338 -31h-745v627h-160zM518 256h400q152 0 231 31q229 90 229 450q0 48 -5 93t-20.5 100 t-41 98.5t-70.5 81.5t-104 57q-70 23 -201 23h-418v-328h381v-235h-381v-371z" />
<glyph unicode="&#xd1;" horiz-adv-x="1921" d="M158 0v1446h362l887 -1010v1010h344v-1446h-356l-893 1014v-1014h-344zM561 1577q11 74 19 100q45 138 206 138q39 0 94.5 -12t86.5 -21.5t43 -14.5q103 -32 157 -32q65 0 88 43q9 19 11 32h127q-7 -79 -27 -127q-56 -120 -203 -118q-26 0 -52 3t-61 11.5t-49 12t-58 17 t-46 13.5q-89 25 -119 25q-52 0 -78 -39q-12 -18 -12 -33z" />
<glyph unicode="&#xd2;" horiz-adv-x="1961" d="M90 723q0 96 18 182t45 146.5t65 114.5t70.5 86.5t69.5 60.5q214 164 564 178q145 5 294.5 -20t264.5 -82q62 -33 114 -70q70 -53 115 -109q60 -71 107 -191t47 -282q0 -99 -17 -184q-7 -36 -16.5 -70.5t-32 -87.5t-53 -100t-81 -100t-112.5 -95q-223 -147 -571 -147 q-154 0 -284 28.5t-221 78.5t-153 104t-104 117q-50 72 -89.5 183.5t-39.5 258.5zM463 713q0 -118 39 -209q17 -46 55 -98q2 -2 10.5 -13.5t16.5 -21t21 -23t26 -24.5q129 -111 346 -111q114 0 209 35q59 21 107 54t79 68.5t55 78.5t36.5 80t20 77t9.5 65.5t2 49.5 q0 210 -129 352q-73 81 -180.5 121t-224.5 37q-117 -7 -209 -47q-55 -25 -100 -59t-74.5 -69.5t-51.5 -77t-33.5 -77t-18.5 -74.5t-9 -64t-2 -50zM649 1812h348l111 -256h-203z" />
<glyph unicode="&#xd3;" horiz-adv-x="1961" d="M90 723q0 96 18 182t45 146.5t65 114.5t70.5 86.5t69.5 60.5q214 164 564 178q145 5 294.5 -20t264.5 -82q62 -33 114 -70q70 -53 115 -109q60 -71 107 -191t47 -282q0 -99 -17 -184q-7 -36 -16.5 -70.5t-32 -87.5t-53 -100t-81 -100t-112.5 -95q-223 -147 -571 -147 q-154 0 -284 28.5t-221 78.5t-153 104t-104 117q-50 72 -89.5 183.5t-39.5 258.5zM463 713q0 -118 39 -209q17 -46 55 -98q2 -2 10.5 -13.5t16.5 -21t21 -23t26 -24.5q129 -111 346 -111q114 0 209 35q59 21 107 54t79 68.5t55 78.5t36.5 80t20 77t9.5 65.5t2 49.5 q0 210 -129 352q-73 81 -180.5 121t-224.5 37q-117 -7 -209 -47q-55 -25 -100 -59t-74.5 -69.5t-51.5 -77t-33.5 -77t-18.5 -74.5t-9 -64t-2 -50zM840 1559l106 253h350l-249 -253h-207z" />
<glyph unicode="&#xd4;" horiz-adv-x="1961" d="M90 723q0 96 18 182t45 146.5t65 114.5t70.5 86.5t69.5 60.5q214 164 564 178q145 5 294.5 -20t264.5 -82q62 -33 114 -70q70 -53 115 -109q60 -71 107 -191t47 -282q0 -99 -17 -184q-7 -36 -16.5 -70.5t-32 -87.5t-53 -100t-81 -100t-112.5 -95q-223 -147 -571 -147 q-154 0 -284 28.5t-221 78.5t-153 104t-104 117q-50 72 -89.5 183.5t-39.5 258.5zM463 713q0 -118 39 -209q17 -46 55 -98q2 -2 10.5 -13.5t16.5 -21t21 -23t26 -24.5q129 -111 346 -111q114 0 209 35q59 21 107 54t79 68.5t55 78.5t36.5 80t20 77t9.5 65.5t2 49.5 q0 210 -129 352q-73 81 -180.5 121t-224.5 37q-117 -7 -209 -47q-55 -25 -100 -59t-74.5 -69.5t-51.5 -77t-33.5 -77t-18.5 -74.5t-9 -64t-2 -50zM565 1559l197 253h418l194 -253h-233l-170 159l-172 -159h-234z" />
<glyph unicode="&#xd5;" horiz-adv-x="1961" d="M90 723q0 96 18 182t45 146.5t65 114.5t70.5 86.5t69.5 60.5q214 164 564 178q145 5 294.5 -20t264.5 -82q62 -33 114 -70q70 -53 115 -109q60 -71 107 -191t47 -282q0 -99 -17 -184q-7 -36 -16.5 -70.5t-32 -87.5t-53 -100t-81 -100t-112.5 -95q-223 -147 -571 -147 q-154 0 -284 28.5t-221 78.5t-153 104t-104 117q-50 72 -89.5 183.5t-39.5 258.5zM463 713q0 -118 39 -209q17 -46 55 -98q2 -2 10.5 -13.5t16.5 -21t21 -23t26 -24.5q129 -111 346 -111q114 0 209 35q59 21 107 54t79 68.5t55 78.5t36.5 80t20 77t9.5 65.5t2 49.5 q0 210 -129 352q-73 81 -180.5 121t-224.5 37q-117 -7 -209 -47q-55 -25 -100 -59t-74.5 -69.5t-51.5 -77t-33.5 -77t-18.5 -74.5t-9 -64t-2 -50zM582 1577q11 80 18 100q8 24 21 45.5t36.5 44t62 35.5t87.5 13q81 0 225 -48q100 -32 156 -32q67 0 90 43q4 8 10 32h127 q-13 -92 -29 -127q-56 -120 -202 -118q-25 0 -51.5 3t-59 11t-50.5 12.5t-57 16t-48 14.5q-89 25 -117 25q-52 0 -78 -39q-3 -5 -6.5 -13t-5 -13.5t-2.5 -6.5z" />
<glyph unicode="&#xd6;" horiz-adv-x="1961" d="M90 723q0 96 18 182t45 146.5t65 114.5t70.5 86.5t69.5 60.5q214 164 564 178q145 5 294.5 -20t264.5 -82q62 -33 114 -70q70 -53 115 -109q60 -71 107 -191t47 -282q0 -99 -17 -184q-7 -36 -16.5 -70.5t-32 -87.5t-53 -100t-81 -100t-112.5 -95q-223 -147 -571 -147 q-154 0 -284 28.5t-221 78.5t-153 104t-104 117q-50 72 -89.5 183.5t-39.5 258.5zM463 713q0 -118 39 -209q17 -46 55 -98q2 -2 10.5 -13.5t16.5 -21t21 -23t26 -24.5q129 -111 346 -111q114 0 209 35q59 21 107 54t79 68.5t55 78.5t36.5 80t20 77t9.5 65.5t2 49.5 q0 210 -129 352q-73 81 -180.5 121t-224.5 37q-117 -7 -209 -47q-55 -25 -100 -59t-74.5 -69.5t-51.5 -77t-33.5 -77t-18.5 -74.5t-9 -64t-2 -50zM504 1548v258h336v-258h-336zM1126 1548v258h338v-258h-338z" />
<glyph unicode="&#xd7;" horiz-adv-x="1574" d="M256 895l221 229l324 -307l311 309l188 -180l-309 -309l328 -309l-221 -230l-328 310l-311 -310l-189 181l312 309z" />
<glyph unicode="&#xd8;" horiz-adv-x="1961" d="M90 723q0 216 80 364q56 109 146.5 190t200 126.5t225 67.5t239.5 22q253 0 446 -84q54 -23 121 -63l197 180l98 -111l-176 -166q48 -48 70 -80q127 -177 127 -432q0 -93 -21 -198q-62 -289 -301 -443q-218 -143 -559 -143q-263 0 -448 78q-51 21 -115 61l-211 -194 l-96 106l188 178q-43 43 -82 99q-129 192 -129 442zM449 713q0 -57 9 -107t27 -91.5t28.5 -61t29.5 -50.5l774 725q-36 27 -66 46q-112 65 -270 65q-141 0 -268 -65q-69 -36 -120 -88.5t-77.5 -101.5t-42.5 -106t-20 -93.5t-4 -71.5zM645 303q35 -25 60 -37q113 -63 276 -63 q29 0 61.5 3.5t83.5 14t105.5 36.5t99.5 65q84 70 128 176.5t44 222.5q0 163 -84 301z" />
<glyph unicode="&#xd9;" horiz-adv-x="1878" d="M154 606v840h360v-852q0 -94 23.5 -158.5t91.5 -113.5q109 -78 313 -78q170 0 270 57q77 42 115 115q25 52 25 127v903h360v-842q0 -84 -3 -131.5t-20 -112.5t-51 -120q-42 -63 -86 -103q-108 -96 -275 -141t-337 -45q-149 0 -283 29q-103 23 -185.5 61t-136 84.5 t-86.5 91.5t-54 94q-24 55 -32.5 116.5t-8.5 178.5zM606 1812h348l111 -256h-203z" />
<glyph unicode="&#xda;" horiz-adv-x="1878" d="M154 606v840h360v-852q0 -94 23.5 -158.5t91.5 -113.5q109 -78 313 -78q170 0 270 57q77 42 115 115q25 52 25 127v903h360v-842q0 -84 -3 -131.5t-20 -112.5t-51 -120q-42 -63 -86 -103q-108 -96 -275 -141t-337 -45q-149 0 -283 29q-103 23 -185.5 61t-136 84.5 t-86.5 91.5t-54 94q-24 55 -32.5 116.5t-8.5 178.5zM797 1559l106 253h350l-249 -253h-207z" />
<glyph unicode="&#xdb;" horiz-adv-x="1878" d="M154 606v840h360v-852q0 -94 23.5 -158.5t91.5 -113.5q109 -78 313 -78q170 0 270 57q77 42 115 115q25 52 25 127v903h360v-842q0 -84 -3 -131.5t-20 -112.5t-51 -120q-42 -63 -86 -103q-108 -96 -275 -141t-337 -45q-149 0 -283 29q-103 23 -185.5 61t-136 84.5 t-86.5 91.5t-54 94q-24 55 -32.5 116.5t-8.5 178.5zM522 1559l197 253h418l194 -253h-231l-170 159l-174 -159h-234z" />
<glyph unicode="&#xdc;" horiz-adv-x="1878" d="M154 606v840h360v-852q0 -94 23.5 -158.5t91.5 -113.5q109 -78 313 -78q170 0 270 57q77 42 115 115q25 52 25 127v903h360v-842q0 -84 -3 -131.5t-20 -112.5t-51 -120q-42 -63 -86 -103q-108 -96 -275 -141t-337 -45q-149 0 -283 29q-103 23 -185.5 61t-136 84.5 t-86.5 91.5t-54 94q-24 55 -32.5 116.5t-8.5 178.5zM461 1546v256h336v-256h-336zM1083 1546v256h336v-256h-336z" />
<glyph unicode="&#xdd;" horiz-adv-x="1748" d="M2 1446h444l426 -604l428 604h441l-690 -903v-543h-361v543zM733 1559l107 253h348l-248 -253h-207z" />
<glyph unicode="&#xde;" horiz-adv-x="1622" d="M158 0v1446h356v-217h586q82 0 119 -6q289 -39 358 -297q18 -70 18 -150q0 -157 -69 -260q-41 -60 -94 -100.5t-113 -58t-108 -23.5t-107 -6h-590v-328h-356zM514 582h481q76 0 117 13q123 39 123 177q0 58 -21 102q-49 105 -188 105h-512v-397z" />
<glyph unicode="&#xdf;" d="M150 0v971q0 55 1 85t7 79.5t17.5 82t34.5 69.5t56 65q67 59 190.5 95t299.5 36q250 0 391 -70q180 -88 180 -289q0 -133 -78 -211q-65 -65 -172 -82q88 -11 127 -22q28 -8 55 -20.5t62 -36.5t65 -65.5t48 -94.5q24 -75 24 -156q0 -177 -96 -295q-47 -58 -114 -96 t-135.5 -52t-106.5 -18t-72 -4q-117 0 -297 39v203q130 -33 211 -33q69 0 120 21t77.5 50.5t42.5 71t20 71t4 61.5q0 86 -33 145q-37 71 -105 93t-167 22q-81 0 -158 -6v206q133 -5 195 4.5t100 53.5q37 46 37 117q0 86 -49 133q-61 57 -197 57q-125 0 -182 -47 q-27 -18 -45 -55q-21 -45 -21 -129v-1049h-337z" />
<glyph unicode="&#xe0;" d="M84 317q0 195 154 273q59 28 158.5 42.5t163 16.5t163.5 2h321v17.5v19t-0.5 18t-2.5 19t-5 17.5t-8 18q-47 80 -276 80q-154 0 -217 -35q-34 -17 -48 -39q-5 -9 -8 -23l-342 5q19 111 86 182q71 74 199.5 108.5t339.5 34.5q264 0 407 -57q114 -50 160 -119 q20 -29 32 -64t16.5 -78t5.5 -70t1 -73v-485q0 -19 2 -34.5t4 -25t8.5 -20.5t9 -15t12 -16t12.5 -16h-369q-18 58 -21 111q-4 -2 -30.5 -18t-36.5 -21.5t-37.5 -20.5t-45 -21.5t-47.5 -18t-56.5 -17t-60.5 -12t-71 -9t-77 -2.5q-291 0 -412 131q-84 90 -84 215zM438 328 q0 -30 19 -60q49 -71 209 -71q58 0 106 10q19 3 46.5 12.5t68.5 28t79.5 52.5t59.5 77q11 21 14 40.5t2 61.5h-235q-71 0 -156 -10q-85 -8 -129 -25t-65 -53q-19 -30 -19 -63zM438 1425h348l111 -256h-205z" />
<glyph unicode="&#xe1;" d="M84 317q0 195 154 273q59 28 158.5 42.5t163 16.5t163.5 2h321v17.5v19t-0.5 18t-2.5 19t-5 17.5t-8 18q-47 80 -276 80q-154 0 -217 -35q-34 -17 -48 -39q-5 -9 -8 -23l-342 5q19 111 86 182q71 74 199.5 108.5t339.5 34.5q264 0 407 -57q114 -50 160 -119 q20 -29 32 -64t16.5 -78t5.5 -70t1 -73v-485q0 -19 2 -34.5t4 -25t8.5 -20.5t9 -15t12 -16t12.5 -16h-369q-18 58 -21 111q-4 -2 -30.5 -18t-36.5 -21.5t-37.5 -20.5t-45 -21.5t-47.5 -18t-56.5 -17t-60.5 -12t-71 -9t-77 -2.5q-291 0 -412 131q-84 90 -84 215zM438 328 q0 -30 19 -60q49 -71 209 -71q58 0 106 10q19 3 46.5 12.5t68.5 28t79.5 52.5t59.5 77q11 21 14 40.5t2 61.5h-235q-71 0 -156 -10q-85 -8 -129 -25t-65 -53q-19 -30 -19 -63zM629 1171l108 254h350l-249 -254h-209z" />
<glyph unicode="&#xe2;" d="M84 317q0 195 154 273q59 28 158.5 42.5t163 16.5t163.5 2h321v17.5v19t-0.5 18t-2.5 19t-5 17.5t-8 18q-47 80 -276 80q-154 0 -217 -35q-34 -17 -48 -39q-5 -9 -8 -23l-342 5q19 111 86 182q71 74 199.5 108.5t339.5 34.5q264 0 407 -57q114 -50 160 -119 q20 -29 32 -64t16.5 -78t5.5 -70t1 -73v-485q0 -19 2 -34.5t4 -25t8.5 -20.5t9 -15t12 -16t12.5 -16h-369q-18 58 -21 111q-4 -2 -30.5 -18t-36.5 -21.5t-37.5 -20.5t-45 -21.5t-47.5 -18t-56.5 -17t-60.5 -12t-71 -9t-77 -2.5q-291 0 -412 131q-84 90 -84 215zM356 1169 l197 254h418l194 -254h-233l-168 160l-174 -160h-234zM438 328q0 -30 19 -60q49 -71 209 -71q58 0 106 10q19 3 46.5 12.5t68.5 28t79.5 52.5t59.5 77q11 21 14 40.5t2 61.5h-235q-71 0 -156 -10q-85 -8 -129 -25t-65 -53q-19 -30 -19 -63z" />
<glyph unicode="&#xe3;" d="M84 317q0 195 154 273q59 28 158.5 42.5t163 16.5t163.5 2h321v17.5v19t-0.5 18t-2.5 19t-5 17.5t-8 18q-47 80 -276 80q-154 0 -217 -35q-34 -17 -48 -39q-5 -9 -8 -23l-342 5q19 111 86 182q71 74 199.5 108.5t339.5 34.5q264 0 407 -57q114 -50 160 -119 q20 -29 32 -64t16.5 -78t5.5 -70t1 -73v-485q0 -19 2 -34.5t4 -25t8.5 -20.5t9 -15t12 -16t12.5 -16h-369q-18 58 -21 111q-4 -2 -30.5 -18t-36.5 -21.5t-37.5 -20.5t-45 -21.5t-47.5 -18t-56.5 -17t-60.5 -12t-71 -9t-77 -2.5q-291 0 -412 131q-84 90 -84 215zM369 1188 q9 76 18 102q45 137 207 137q39 0 94.5 -11.5t86 -21t42.5 -14.5q103 -32 158 -32q66 0 90 41q3 6 10 34h125q-8 -82 -26 -127q-54 -120 -203 -120q-19 0 -38 1.5t-41 6t-37.5 7.5t-40.5 10.5t-36 10.5t-39 12t-34 11q-78 22 -117 22q-58 0 -80 -36q-12 -18 -12 -35z M438 328q0 -30 19 -60q49 -71 209 -71q58 0 106 10q19 3 46.5 12.5t68.5 28t79.5 52.5t59.5 77q11 21 14 40.5t2 61.5h-235q-71 0 -156 -10q-85 -8 -129 -25t-65 -53q-19 -30 -19 -63z" />
<glyph unicode="&#xe4;" d="M84 317q0 195 154 273q59 28 158.5 42.5t163 16.5t163.5 2h321v17.5v19t-0.5 18t-2.5 19t-5 17.5t-8 18q-47 80 -276 80q-154 0 -217 -35q-34 -17 -48 -39q-5 -9 -8 -23l-342 5q19 111 86 182q71 74 199.5 108.5t339.5 34.5q264 0 407 -57q114 -50 160 -119 q20 -29 32 -64t16.5 -78t5.5 -70t1 -73v-485q0 -19 2 -34.5t4 -25t8.5 -20.5t9 -15t12 -16t12.5 -16h-369q-18 58 -21 111q-4 -2 -30.5 -18t-36.5 -21.5t-37.5 -20.5t-45 -21.5t-47.5 -18t-56.5 -17t-60.5 -12t-71 -9t-77 -2.5q-291 0 -412 131q-84 90 -84 215zM410 1167 v252h301v-252h-301zM438 328q0 -30 19 -60q49 -71 209 -71q58 0 106 10q19 3 46.5 12.5t68.5 28t79.5 52.5t59.5 77q11 21 14 40.5t2 61.5h-235q-71 0 -156 -10q-85 -8 -129 -25t-65 -53q-19 -30 -19 -63zM827 1167v252h306v-252h-306z" />
<glyph unicode="&#xe5;" d="M84 317q0 195 154 273q59 28 158.5 42.5t163 16.5t163.5 2h321v17.5v19t-0.5 18t-2.5 19t-5 17.5t-8 18q-47 80 -276 80q-154 0 -217 -35q-34 -17 -48 -39q-5 -9 -8 -23l-342 5q19 111 86 182q71 74 199.5 108.5t339.5 34.5q264 0 407 -57q114 -50 160 -119 q20 -29 32 -64t16.5 -78t5.5 -70t1 -73v-485q0 -19 2 -34.5t4 -25t8.5 -20.5t9 -15t12 -16t12.5 -16h-369q-18 58 -21 111q-4 -2 -30.5 -18t-36.5 -21.5t-37.5 -20.5t-45 -21.5t-47.5 -18t-56.5 -17t-60.5 -12t-71 -9t-77 -2.5q-291 0 -412 131q-84 90 -84 215zM438 328 q0 -30 19 -60q49 -71 209 -71q58 0 106 10q19 3 46.5 12.5t68.5 28t79.5 52.5t59.5 77q11 21 14 40.5t2 61.5h-235q-71 0 -156 -10q-85 -8 -129 -25t-65 -53q-19 -30 -19 -63zM502 1346q0 48 24 90q25 45 85.5 81t152.5 37q67 1 127.5 -20t103.5 -71.5t43 -121.5 q0 -45 -20 -86q-62 -122 -242 -122q-45 0 -94 12q-79 22 -129.5 74t-50.5 127zM659 1339q0 -46 31.5 -72t77.5 -26q59 0 85 33t26 67q0 11 -7 35q-10 30 -34 47t-42 19.5t-32 1.5q-44 -2 -74.5 -30.5t-30.5 -74.5z" />
<glyph unicode="&#xe6;" horiz-adv-x="2260" d="M84 309q0 146 90 228q43 40 96 59q128 51 379 51h279q-5 78 -23 113q-54 90 -243 90q-151 0 -199 -57q-14 -17 -27 -54l-305 4q20 114 68 179q35 48 95 82t110 49t117 23t85 8.5t45 0.5q252 0 383 -88q41 -27 76 -67q37 33 66 51q162 104 391 104q256 0 424 -133 q61 -49 98.5 -110t52.5 -105q22 -64 28.5 -123t6.5 -147h-909q14 -79 47 -131q40 -68 114.5 -107t155.5 -39q132 0 223 91q26 26 54 71l315 -35q-57 -125 -133 -196q-65 -63 -184.5 -112.5t-282.5 -49.5q-126 0 -251 40t-214 116q-31 31 -39 41q-40 -40 -92 -76 q-70 -46 -182 -83.5t-256 -37.5q-171 0 -299 68q-48 29 -72 51q-88 88 -88 231zM399 328q0 -60 49 -103t150 -43q160 0 250 101q24 24 41 59q8 15 15 37.5t10.5 39t6.5 32.5l3 16h-287q-111 0 -162 -25q-43 -20 -59.5 -53t-16.5 -61zM1276 647h557q-12 53 -28 86.5t-50 63.5 q-76 63 -188 63q-75 0 -141.5 -31t-106.5 -90q-19 -28 -43 -92z" />
<glyph unicode="&#xe7;" horiz-adv-x="1439" d="M78 520q0 120 43 217.5t112.5 159.5t161 104.5t183 60t184.5 17.5q66 0 133 -9.5t143 -32t148.5 -67t126.5 -106.5q40 -42 78 -119l-353 -38q-90 118 -276 118q-65 0 -125.5 -20t-109 -57.5t-78 -97t-29.5 -132.5q0 -36 10 -75t35.5 -81t63 -74.5t97.5 -53.5t134 -21 q72 0 152 26.5t130 86.5q1 1 5.5 8.5t10 17t9.5 17.5l344 -50q-36 -68 -61.5 -102t-85.5 -84q-184 -153 -455 -174l-74 -111q50 5 58 5q38 0 74.5 -7t76 -24t64 -53t24.5 -86q0 -55 -29 -95t-75 -59.5t-90 -28t-86 -8.5q-57 0 -189 21l2 102q46 -6 92 -6q62 0 98.5 19.5 t35.5 58.5q0 24 -13 37q-18 18 -34.5 24t-49.5 6q-27 0 -110 -18l-23 55l133 166q-152 15 -260 57q-47 18 -91 44t-94 70.5t-86.5 97.5t-60.5 130t-24 164z" />
<glyph unicode="&#xe8;" d="M76 528q0 259 194 406q187 143 500 143q100 0 194 -19.5t181.5 -60t156.5 -111t107 -163.5q39 -97 41 -262h-1028q9 -44 24 -80q34 -73 117 -125.5t221 -52.5q170 0 273 82q34 30 55 61l350 -35q-10 -18 -47 -71q-40 -53 -101.5 -104.5t-121.5 -82.5q-183 -94 -426 -94 q-156 0 -279.5 36.5t-198.5 94t-124.5 135t-68.5 152t-19 151.5zM432 647h645q-15 58 -28 80q-39 59 -120.5 86t-164.5 27q-82 0 -158.5 -25t-122.5 -78q-25 -29 -51 -90zM438 1425h348l111 -256h-205z" />
<glyph unicode="&#xe9;" d="M76 528q0 259 194 406q187 143 500 143q100 0 194 -19.5t181.5 -60t156.5 -111t107 -163.5q39 -97 41 -262h-1028q9 -44 24 -80q34 -73 117 -125.5t221 -52.5q170 0 273 82q34 30 55 61l350 -35q-10 -18 -47 -71q-40 -53 -101.5 -104.5t-121.5 -82.5q-183 -94 -426 -94 q-156 0 -279.5 36.5t-198.5 94t-124.5 135t-68.5 152t-19 151.5zM432 647h645q-15 58 -28 80q-39 59 -120.5 86t-164.5 27q-82 0 -158.5 -25t-122.5 -78q-25 -29 -51 -90zM629 1171l108 254h350l-249 -254h-209z" />
<glyph unicode="&#xea;" d="M76 528q0 259 194 406q187 143 500 143q100 0 194 -19.5t181.5 -60t156.5 -111t107 -163.5q39 -97 41 -262h-1028q9 -44 24 -80q34 -73 117 -125.5t221 -52.5q170 0 273 82q34 30 55 61l350 -35q-10 -18 -47 -71q-40 -53 -101.5 -104.5t-121.5 -82.5q-183 -94 -426 -94 q-156 0 -279.5 36.5t-198.5 94t-124.5 135t-68.5 152t-19 151.5zM356 1169l197 254h418l194 -254h-233l-168 160l-174 -160h-234zM432 647h645q-15 58 -28 80q-39 59 -120.5 86t-164.5 27q-82 0 -158.5 -25t-122.5 -78q-25 -29 -51 -90z" />
<glyph unicode="&#xeb;" d="M76 528q0 259 194 406q187 143 500 143q100 0 194 -19.5t181.5 -60t156.5 -111t107 -163.5q39 -97 41 -262h-1028q9 -44 24 -80q34 -73 117 -125.5t221 -52.5q170 0 273 82q34 30 55 61l350 -35q-10 -18 -47 -71q-40 -53 -101.5 -104.5t-121.5 -82.5q-183 -94 -426 -94 q-156 0 -279.5 36.5t-198.5 94t-124.5 135t-68.5 152t-19 151.5zM403 1171v252h302v-252h-302zM432 647h645q-15 58 -28 80q-39 59 -120.5 86t-164.5 27q-82 0 -158.5 -25t-122.5 -78q-25 -29 -51 -90zM823 1171v252h303v-252h-303z" />
<glyph unicode="&#xec;" horiz-adv-x="641" d="M-10 1425h348l113 -256h-207zM152 0v1036h335v-1036h-335z" />
<glyph unicode="&#xed;" horiz-adv-x="641" d="M152 0v1036h335v-1036h-335zM182 1171l107 254h350l-250 -254h-207z" />
<glyph unicode="&#xee;" horiz-adv-x="641" d="M-90 1169l194 254h418l195 -254h-232l-170 160l-174 -160h-231zM152 0v1036h335v-1036h-335z" />
<glyph unicode="&#xef;" horiz-adv-x="641" d="M-45 1171v252h301v-252h-301zM152 0v1036h335v-1036h-335zM375 1171v252h303v-252h-303z" />
<glyph unicode="&#xf0;" horiz-adv-x="1579" d="M76 510q0 186 107 326t311 206q126 43 239 43q183 0 301 -86q-2 2 -35 49t-64 84t-73 80l-393 -73l-53 114l334 64q-56 52 -113 96l348 64q40 -35 64 -54q7 -6 14 -13t15 -15.5t14 -14.5l229 45l57 -114l-182 -35q49 -50 96 -114.5t96.5 -155t80 -204.5t30.5 -231 q0 -230 -147 -397q-94 -106 -232.5 -161.5t-343.5 -55.5q-142 0 -261 33t-198.5 88t-135 127.5t-80.5 149.5t-25 155zM426 516q0 -55 18 -107.5t62.5 -101t109.5 -74.5q64 -26 175 -26q83 0 148 21t103.5 54t63.5 77t34 85t9 84q0 78 -30 139t-80 97.5t-111.5 55 t-128.5 18.5h-29q-64 0 -145 -31q-56 -21 -96 -56.5t-59.5 -67.5t-30 -71.5t-12 -57.5t-1.5 -38z" />
<glyph unicode="&#xf1;" horiz-adv-x="1579" d="M150 0v1036h333v-147q42 42 74 67q57 44 154.5 77.5t228.5 33.5q139 0 235.5 -42t149.5 -99q45 -48 66 -109q15 -38 22 -82.5t8.5 -76.5t1.5 -85v-573h-338v528q0 82 -14 137.5t-61 96.5q-69 65 -213 65q-47 0 -89.5 -7.5t-85.5 -24t-75.5 -48.5t-48.5 -77 q-15 -44 -15 -113v-557h-333zM391 1188q0 50 17 102q16 54 64.5 95.5t141.5 41.5q39 0 95 -11.5t88 -21.5t43 -14q103 -32 155 -32q66 0 90 41q9 18 11 34h127q-12 -85 -29 -127q-54 -120 -203 -120q-31 0 -71.5 7t-60.5 12.5t-74 22t-58 17.5q-72 22 -119 22q-54 0 -78 -36 q-4 -5 -7 -13t-4.5 -14.5t-2.5 -7.5z" />
<glyph unicode="&#xf2;" horiz-adv-x="1579" d="M78 520q0 155 78 277q26 41 63 79t94.5 77t126 67t162.5 46t199 17q186 0 350 -63t258 -199q88 -130 88 -286q0 -172 -86 -302q-45 -70 -121 -127q-195 -149 -502 -149q-116 0 -216 22.5t-158 47.5q-69 27 -123 69q-65 49 -109 105q-104 132 -104 319zM426 514 q0 -97 55.5 -174t147.5 -111q68 -22 162 -22q81 0 155 24q64 22 108.5 63t63 88t25 81t6.5 65q0 92 -45 164q-25 39 -63 71t-110 56t-161 19q-160 -7 -250 -93q-94 -89 -94 -231zM459 1425h350l111 -256h-205z" />
<glyph unicode="&#xf3;" horiz-adv-x="1579" d="M78 520q0 155 78 277q26 41 63 79t94.5 77t126 67t162.5 46t199 17q186 0 350 -63t258 -199q88 -130 88 -286q0 -172 -86 -302q-45 -70 -121 -127q-195 -149 -502 -149q-116 0 -216 22.5t-158 47.5q-69 27 -123 69q-65 49 -109 105q-104 132 -104 319zM426 514 q0 -97 55.5 -174t147.5 -111q68 -22 162 -22q81 0 155 24q64 22 108.5 63t63 88t25 81t6.5 65q0 92 -45 164q-25 39 -63 71t-110 56t-161 19q-160 -7 -250 -93q-94 -89 -94 -231zM651 1171l107 254h350l-250 -254h-207z" />
<glyph unicode="&#xf4;" horiz-adv-x="1579" d="M78 520q0 155 78 277q26 41 63 79t94.5 77t126 67t162.5 46t199 17q186 0 350 -63t258 -199q88 -130 88 -286q0 -172 -86 -302q-45 -70 -121 -127q-195 -149 -502 -149q-116 0 -216 22.5t-158 47.5q-69 27 -123 69q-65 49 -109 105q-104 132 -104 319zM379 1169l194 254 h418l195 -254h-232l-170 160l-172 -160h-233zM426 514q0 -97 55.5 -174t147.5 -111q68 -22 162 -22q81 0 155 24q64 22 108.5 63t63 88t25 81t6.5 65q0 92 -45 164q-25 39 -63 71t-110 56t-161 19q-160 -7 -250 -93q-94 -89 -94 -231z" />
<glyph unicode="&#xf5;" horiz-adv-x="1579" d="M78 520q0 155 78 277q26 41 63 79t94.5 77t126 67t162.5 46t199 17q186 0 350 -63t258 -199q88 -130 88 -286q0 -172 -86 -302q-45 -70 -121 -127q-195 -149 -502 -149q-116 0 -216 22.5t-158 47.5q-69 27 -123 69q-65 49 -109 105q-104 132 -104 319zM391 1188 q0 50 17 102q16 54 64.5 95.5t141.5 41.5q39 0 95 -11.5t88 -21.5t43 -14q103 -32 155 -32q66 0 90 41q9 18 11 34h127q-12 -85 -29 -127q-54 -120 -203 -120q-31 0 -71.5 7t-60.5 12.5t-74 22t-58 17.5q-72 22 -119 22q-54 0 -78 -36q-4 -5 -7 -13t-4.5 -14.5t-2.5 -7.5z M426 514q0 -97 55.5 -174t147.5 -111q68 -22 162 -22q81 0 155 24q64 22 108.5 63t63 88t25 81t6.5 65q0 92 -45 164q-25 39 -63 71t-110 56t-161 19q-160 -7 -250 -93q-94 -89 -94 -231z" />
<glyph unicode="&#xf6;" horiz-adv-x="1579" d="M78 520q0 155 78 277q26 41 63 79t94.5 77t126 67t162.5 46t199 17q186 0 350 -63t258 -199q88 -130 88 -286q0 -172 -86 -302q-45 -70 -121 -127q-195 -149 -502 -149q-116 0 -216 22.5t-158 47.5q-69 27 -123 69q-65 49 -109 105q-104 132 -104 319zM426 514 q0 -97 55.5 -174t147.5 -111q68 -22 162 -22q81 0 155 24q64 22 108.5 63t63 88t25 81t6.5 65q0 92 -45 164q-25 39 -63 71t-110 56t-161 19q-160 -7 -250 -93q-94 -89 -94 -231zM430 1167v254h301v-254h-301zM848 1167v254h305v-254h-305z" />
<glyph unicode="&#xf7;" horiz-adv-x="1581" d="M164 483v267h1253v-267h-1253zM633 858v303h311v-303h-311zM635 68v303h311v-303h-311z" />
<glyph unicode="&#xf8;" horiz-adv-x="1579" d="M78 514q0 208 125 350q187 215 579 215q218 0 357 -53q20 -8 39 -17.5t35 -18.5t20 -11l129 113l78 -91l-111 -94q33 -25 68 -71q100 -121 100 -301q0 -186 -94 -320q-34 -51 -109 -111q-189 -147 -510 -147q-214 0 -360 59q-32 13 -82 41l-123 -108l-78 90l105 90 q-50 50 -72 80q-96 127 -96 305zM401 520q0 -47 15 -92t24.5 -61t30.5 -45l541 466q-19 11 -60 27q-78 27 -166 27q-129 0 -217 -43q-53 -26 -89.5 -65.5t-52 -82.5t-21 -73t-5.5 -58zM563 248q24 -14 41 -21q99 -34 189 -34t170 30q65 24 110.5 63t65.5 83t27.5 79t7.5 70 q0 49 -13 91.5t-24 60t-31 45.5z" />
<glyph unicode="&#xf9;" horiz-adv-x="1579" d="M150 403v633h337v-544q0 -41 2 -65.5t11.5 -57t27.5 -58.5q56 -75 166 -92q39 -6 88 -6q97 0 172 29q47 19 76.5 46.5t42.5 66.5t17 73.5t4 89.5v518h336v-1036h-336v147q-46 -46 -86 -73q-147 -99 -390 -99q-214 0 -342 103q-67 53 -94 115q-19 40 -25.5 83.5 t-6.5 126.5zM459 1425h350l111 -256h-205z" />
<glyph unicode="&#xfa;" horiz-adv-x="1579" d="M150 403v633h337v-544q0 -41 2 -65.5t11.5 -57t27.5 -58.5q56 -75 166 -92q39 -6 88 -6q97 0 172 29q47 19 76.5 46.5t42.5 66.5t17 73.5t4 89.5v518h336v-1036h-336v147q-46 -46 -86 -73q-147 -99 -390 -99q-214 0 -342 103q-67 53 -94 115q-19 40 -25.5 83.5 t-6.5 126.5zM651 1171l107 254h350l-250 -254h-207z" />
<glyph unicode="&#xfb;" horiz-adv-x="1579" d="M150 403v633h337v-544q0 -41 2 -65.5t11.5 -57t27.5 -58.5q56 -75 166 -92q39 -6 88 -6q97 0 172 29q47 19 76.5 46.5t42.5 66.5t17 73.5t4 89.5v518h336v-1036h-336v147q-46 -46 -86 -73q-147 -99 -390 -99q-214 0 -342 103q-67 53 -94 115q-19 40 -25.5 83.5 t-6.5 126.5zM379 1169l194 254h418l195 -254h-232l-170 160l-172 -160h-233z" />
<glyph unicode="&#xfc;" horiz-adv-x="1579" d="M150 403v633h337v-544q0 -41 2 -65.5t11.5 -57t27.5 -58.5q56 -75 166 -92q39 -6 88 -6q97 0 172 29q47 19 76.5 46.5t42.5 66.5t17 73.5t4 89.5v518h336v-1036h-336v147q-46 -46 -86 -73q-147 -99 -390 -99q-214 0 -342 103q-67 53 -94 115q-19 40 -25.5 83.5 t-6.5 126.5zM440 1169v254h299v-254h-299zM858 1169v254h305v-254h-305z" />
<glyph unicode="&#xfd;" horiz-adv-x="1280" d="M4 1036h361l286 -747l275 747h356l-487 -1104q-51 -108 -84 -159q-34 -55 -72.5 -89.5t-86.5 -51t-94 -22t-116 -5.5q-110 0 -250 10l2 244q151 -11 170 -11q89 0 129 33q14 11 26.5 29.5t20 33t27.5 58.5zM502 1171l108 254h351l-252 -254h-207z" />
<glyph unicode="&#xfe;" d="M147 -393v1839h340v-528q36 33 78 61q51 33 135 57.5t185 24.5q175 0 302.5 -71.5t190.5 -172.5q81 -126 78 -309q-1 -165 -73 -287.5t-197.5 -186t-286.5 -63.5q-223 0 -371 113q-8 7 -21.5 19.5t-21.5 19.5v-516h-338zM487 512q0 -77 25.5 -136t61 -90t82.5 -50.5 t81.5 -25t65.5 -5.5q150 0 229.5 87.5t79.5 233.5q0 34 -7.5 70.5t-29.5 79.5t-56 75.5t-93 54t-135 19.5q-83 0 -146 -32q-158 -83 -158 -281z" />
<glyph unicode="&#xff;" horiz-adv-x="1280" d="M4 1036h361l286 -747l275 747h356l-487 -1104q-51 -108 -84 -159q-34 -55 -72.5 -89.5t-86.5 -51t-94 -22t-116 -5.5q-110 0 -250 10l2 244q151 -11 170 -11q89 0 129 33q14 11 26.5 29.5t20 33t27.5 58.5zM274 1171v252h301v-252h-301zM694 1171v252h303v-252h-303z" />
<glyph unicode="&#x152;" horiz-adv-x="2304" d="M90 727q0 41 3 82.5t18.5 116t42 140t79.5 140.5t125 131q69 54 176.5 95t251.5 41q150 0 252 -41q8 -3 64 -33v47h1087v-250h-725v-330h686v-252h-686v-358h754v-256h-1116v41q-3 -1 -27 -10t-31.5 -11.5t-32.5 -10t-39.5 -11t-41.5 -9t-49.5 -8t-52 -4.5t-60.5 -2 q-185 0 -332 78q-55 29 -101 66.5t-78 79t-55 77.5t-39.5 78.5t-24 66t-15.5 54.5q-33 124 -33 252zM453 727q0 -209 86 -348q23 -38 53 -68q104 -104 274 -104q67 0 116 15.5t120 51.5v889q-37 23 -57.5 34t-73 25.5t-109.5 14.5q-141 0 -241 -78q-33 -26 -56 -55 q-51 -60 -78 -133q-34 -92 -34 -244z" />
<glyph unicode="&#x153;" horiz-adv-x="2260" d="M76 516q0 109 41 213q65 172 220 260t351 88q213 0 352 -94q29 -17 86 -74q54 49 74 64q143 106 373 106q112 0 223 -35q242 -79 330 -284q13 -30 22.5 -63.5t14.5 -59.5t8.5 -59.5t4.5 -48.5t2 -43l1 -27h-909q14 -61 33 -105q13 -26 32.5 -50.5t51.5 -52t82 -44.5 t110 -17q162 0 252 117q8 10 22 39l326 -29q-28 -56 -31 -61q-26 -49 -68.5 -95.5t-109 -94.5t-166.5 -77.5t-217 -29.5q-254 0 -405 117q-25 20 -56 51q-2 -2 -9.5 -11t-12.5 -14l-13.5 -13.5t-19 -17t-22.5 -16.5q-138 -94 -361 -94q-141 0 -258 45q-165 62 -259.5 197 t-94.5 313zM412 516q0 -79 24 -141q9 -24 25.5 -49.5t46.5 -57t78.5 -51.5t107.5 -20q21 0 44 3.5t57.5 14.5t68.5 38t58 66q49 77 49 201q0 122 -53 203q-28 44 -76 76q-71 47 -164 43q-77 -7 -131 -41q-53 -34 -94 -105t-41 -180zM1276 643h561q-9 48 -27 82 q-26 52 -84.5 91.5t-156.5 39.5q-176 0 -256 -131q-22 -35 -37 -82z" />
<glyph unicode="&#x178;" horiz-adv-x="1748" d="M2 1446h444l426 -604l428 604h441l-690 -903v-543h-361v543zM393 1550v256h338v-256h-338zM1018 1550v256h336v-256h-336z" />
<glyph unicode="&#x2c6;" horiz-adv-x="768" d="M-20 1169l196 254h418l194 -254h-233l-168 160l-174 -160h-233z" />
<glyph unicode="&#x2dc;" horiz-adv-x="768" d="M-33 1188q0 1 5.5 38.5t13.5 63.5q50 137 207 137q84 0 225 -47q100 -32 155 -32q70 0 91 41q2 3 10 34h127q-7 -79 -27 -127q-59 -120 -203 -120q-19 0 -38 1.5t-41 6t-37.5 7.5t-40.5 10.5t-36 10.5t-39 12t-34 11q-78 22 -117 22q-55 0 -77 -36q-15 -23 -15 -35z" />
<glyph unicode="&#x2000;" horiz-adv-x="950" />
<glyph unicode="&#x2001;" horiz-adv-x="1901" />
<glyph unicode="&#x2002;" horiz-adv-x="950" />
<glyph unicode="&#x2003;" horiz-adv-x="1901" />
<glyph unicode="&#x2004;" horiz-adv-x="633" />
<glyph unicode="&#x2005;" horiz-adv-x="475" />
<glyph unicode="&#x2006;" horiz-adv-x="316" />
<glyph unicode="&#x2007;" horiz-adv-x="316" />
<glyph unicode="&#x2008;" horiz-adv-x="237" />
<glyph unicode="&#x2009;" horiz-adv-x="380" />
<glyph unicode="&#x200a;" horiz-adv-x="105" />
<glyph unicode="&#x2010;" horiz-adv-x="804" d="M68 492v266h669v-266h-669z" />
<glyph unicode="&#x2011;" horiz-adv-x="804" d="M68 492v266h669v-266h-669z" />
<glyph unicode="&#x2012;" horiz-adv-x="804" d="M68 492v266h669v-266h-669z" />
<glyph unicode="&#x2013;" horiz-adv-x="1310" d="M68 492v266h1175v-266h-1175z" />
<glyph unicode="&#x2014;" horiz-adv-x="1945" d="M68 492v266h1810v-266h-1810z" />
<glyph unicode="&#x2018;" horiz-adv-x="598" d="M125 842v274q0 65 6.5 108.5t25 86.5t56.5 72t98 47q56 16 154 16v-98q-104 -13 -137 -58t-33 -155h170v-293h-340z" />
<glyph unicode="&#x2019;" horiz-adv-x="598" d="M127 844v100q105 10 137.5 56t32.5 157h-170v289h340v-270q0 -51 -3.5 -88t-15 -75.5t-31.5 -65t-54 -50t-82 -37.5q-40 -12 -154 -16z" />
<glyph unicode="&#x201a;" horiz-adv-x="598" d="M129 0v293h340v-299q0 -91 -17.5 -148t-78.5 -100q-80 -57 -244 -57v98q105 11 137.5 56.5t32.5 156.5h-170z" />
<glyph unicode="&#x201c;" horiz-adv-x="1110" d="M129 846v291q0 175 80 244t258 69v-98q-104 -12 -138 -58.5t-32 -156.5h170v-291h-338zM635 844v291q0 175 80 244t258 69v-98q-104 -10 -138 -57t-32 -156h170v-293h-338z" />
<glyph unicode="&#x201d;" horiz-adv-x="1110" d="M133 844v100q105 10 138.5 56t33.5 157h-172v289h340v-270q0 -51 -3.5 -88t-15 -75.5t-31.5 -65t-54 -50t-82 -37.5q-40 -12 -154 -16zM637 842v100q105 10 137.5 57t32.5 158h-170v289h340v-272q0 -51 -3.5 -88t-15 -75.5t-31.5 -65t-54 -50t-82 -37.5q-40 -12 -154 -16 z" />
<glyph unicode="&#x201e;" horiz-adv-x="1110" d="M129 0v293h340v-287q0 -180 -78.5 -248.5t-261.5 -68.5v98q105 10 137.5 56.5t32.5 156.5h-170zM631 0v291h340v-291q0 -176 -80.5 -244.5t-259.5 -68.5v98q106 10 140 57.5t32 157.5h-172z" />
<glyph unicode="&#x2022;" horiz-adv-x="681" d="M78 485v482h526v-482h-526z" />
<glyph unicode="&#x2026;" horiz-adv-x="2048" d="M221 0v246h238v-246h-238zM905 0v246h238v-246h-238zM1589 0v246h238v-246h-238z" />
<glyph unicode="&#x202f;" horiz-adv-x="380" />
<glyph unicode="&#x2039;" horiz-adv-x="641" d="M82 414v213l459 346v-209l-254 -246l254 -233v-211z" />
<glyph unicode="&#x203a;" horiz-adv-x="641" d="M92 762v213l461 -342v-213l-459 -346v209l252 243z" />
<glyph unicode="&#x205f;" horiz-adv-x="475" />
<glyph unicode="&#x20ac;" horiz-adv-x="1982" d="M115 508l84 158h96v39q0 34 2 61h-182l82 158h118q70 278 298.5 422.5t592.5 144.5q415 0 660 -205l-142 -287q-170 226 -540 226q-386 0 -492 -301h998l-78 -158h-942v-27q0 -23 6 -73h885l-78 -158h-778q43 -137 177 -213t335 -76q331 0 567 199l-2 -350 q-282 -117 -619 -117q-232 0 -396.5 59t-281.5 183q-126 135 -168 315h-202z" />
<glyph unicode="&#x2122;" horiz-adv-x="1439" d="M-4 1311v135h569v-135h-200v-545h-166v545h-203zM625 766v680h223l145 -490l142 490h223v-680h-156l6 502l-145 -502h-154l-139 508l10 -508h-155z" />
<glyph unicode="&#x25fc;" horiz-adv-x="1034" d="M0 0v1034h1034v-1034h-1034z" />
</font>
</defs>
</svg>
